<?xml version="1.0" encoding="UTF-8"?><svg id="Calque_1" xmlns="http://www.w3.org/2000/svg" xmlns:xlink="http://www.w3.org/1999/xlink" viewBox="0 0 1172.59 1345.07"><defs><linearGradient id="Dégradé_sans_nom_19" x1="403.73" y1="1609.08" x2="403.86" y2="1609.24" gradientTransform="translate(-213.88 -249.18) rotate(-18.29)" gradientUnits="userSpaceOnUse"><stop offset="0" stop-color="#fff"/><stop offset="1" stop-color="#c2c5f8"/></linearGradient><linearGradient id="Dégradé_sans_nom_19-2" x1="-.23" y1="817.23" x2="385.96" y2="1517.38" xlink:href="#Dégradé_sans_nom_19"/><linearGradient id="Dégradé_sans_nom_19-3" x1="11.25" y1="1415.11" x2="369.2" y2="959.25" gradientTransform="translate(136.43 -375.96)" xlink:href="#Dégradé_sans_nom_19"/><linearGradient id="Dégradé_sans_nom_25" x1="-63.28" y1="640.27" x2="361.98" y2="1411.25" gradientTransform="translate(136.43 -375.96)" gradientUnits="userSpaceOnUse"><stop offset="0" stop-color="#f5a5d6"/><stop offset=".16" stop-color="#f7bfe2"/><stop offset=".37" stop-color="#fbdbee"/><stop offset=".58" stop-color="#fdeff7"/><stop offset=".79" stop-color="#fefbfd"/><stop offset="1" stop-color="#fff"/></linearGradient><linearGradient id="Dégradé_sans_nom_5" x1="168.87" y1="1104.41" x2="278.78" y2="1235.59" gradientTransform="translate(598.54 -372.42) rotate(22.31)" gradientUnits="userSpaceOnUse"><stop offset="0" stop-color="#fff"/><stop offset=".03" stop-color="#fefcf0"/><stop offset=".09" stop-color="#fdf7cf"/><stop offset=".16" stop-color="#fcf3b4"/><stop offset=".24" stop-color="#fcef9d"/><stop offset=".34" stop-color="#fbed8c"/><stop offset=".45" stop-color="#fbeb7f"/><stop offset=".61" stop-color="#fbea78"/><stop offset="1" stop-color="#fbea77"/></linearGradient><linearGradient id="Dégradé_sans_nom_4" x1="201.47" y1="1065.36" x2="238.96" y2="1141.66" gradientTransform="translate(-213.88 -249.18) rotate(-18.29)" gradientUnits="userSpaceOnUse"><stop offset="0" stop-color="#fff"/><stop offset="0" stop-color="#fefcfe"/><stop offset=".08" stop-color="#fbe1f1"/><stop offset=".17" stop-color="#f9cbe7"/><stop offset=".27" stop-color="#f7badf"/><stop offset=".4" stop-color="#f5adda"/><stop offset=".57" stop-color="#f5a6d6"/><stop offset="1" stop-color="#f5a5d6"/></linearGradient><clipPath id="clippath"><path d="m309.88,736.03s-5.04-7.97,4.36-12.81c0,0,1.73-18.46,14.89-16,0,0,7.08-7.8,15.36-3.1,0,0,6.32-8.89,14.75.35,0,0,5.9-4.4,12.27,5.99,0,0,10.74-.07,8.51,9.93,0,0,2.56,2.48,1.37,4.85,0,0,4.7,3.67,1.6,8.18,0,0,1.08,3.52-1.68,5.22,0,0,3,5.26-3.01,7.88,0,0-4.14,10.23-12.92,5.69,0,0-3.77,5.12-9.27,3.07,0,0-3.44,5.65-10.94,5.2,0,0-6.19,5.45-11.74,2.3,0,0-3.34,3.79-7.1-.18,0,0-3.85,1.75-5.88-3.91,0,0-10.5-1.83-7.91-11.23,0,0-8.84-4.41-2.64-11.42Z" fill="url(#Dégradé_sans_nom_4)" stroke="#000" stroke-miterlimit="10" stroke-width=".29"/></clipPath><clipPath id="clippath-1"><path d="m334.43,724.98h0c1.92,0,3.48,1.56,3.48,3.48v8.01h-6.95v-8.01c0-1.92,1.56-3.48,3.48-3.48Z" transform="translate(-212.47 141.91) rotate(-18.29)" fill="#fff" stroke="#000" stroke-linecap="round" stroke-miterlimit="10" stroke-width=".38"/></clipPath><clipPath id="clippath-2"><path d="m346.83,720.88h0c1.92,0,3.48,1.56,3.48,3.48v8.01h-6.95v-8.01c0-1.92,1.56-3.48,3.48-3.48Z" transform="translate(-210.56 145.6) rotate(-18.29)" fill="#fff" stroke="#000" stroke-linecap="round" stroke-miterlimit="10" stroke-width=".38"/></clipPath><linearGradient id="Dégradé_sans_nom_19-4" x1="623.86" y1="428.76" x2="1060" y2="428.76" gradientTransform="translate(-20.41 70.66)" xlink:href="#Dégradé_sans_nom_19"/><linearGradient id="Dégradé_sans_nom_25-2" x1="664.29" y1="270.2" x2="664.29" y2="74.52" gradientTransform="translate(102.23 -113.21) rotate(13.43)" xlink:href="#Dégradé_sans_nom_25"/><linearGradient id="Dégradé_sans_nom_25-3" x1="1240.63" y1="167.91" x2="628.87" y2="167.91" gradientTransform="translate(102.23 -113.21) rotate(13.43)" xlink:href="#Dégradé_sans_nom_25"/><linearGradient id="Dégradé_sans_nom_19-5" x1="656.7" y1="473.82" x2="1092.84" y2="473.82" gradientTransform="translate(-31.78 77.06)" xlink:href="#Dégradé_sans_nom_19"/><linearGradient id="Dégradé_sans_nom_19-6" x1="621.33" y1="451.39" x2="656.7" y2="451.39" gradientTransform="translate(102.23 -113.21) rotate(13.43)" xlink:href="#Dégradé_sans_nom_19"/><linearGradient id="Dégradé_sans_nom_4-2" x1="805.14" y1="421.42" x2="949.32" y2="529.94" gradientTransform="translate(-31.78 77.06)" xlink:href="#Dégradé_sans_nom_4"/><clipPath id="clippath-3"><path d="m828.85,521.85h0c5,0,9.07,4.06,9.07,9.07v20.88h-18.13v-20.88c0-5,4.06-9.07,9.07-9.07Z" transform="translate(147.39 -177.87) rotate(13.43)" fill="#fff" stroke="#000" stroke-linecap="round" stroke-miterlimit="10" stroke-width=".98"/></clipPath><clipPath id="clippath-4"><path d="m861.96,529.76h0c5,0,9.07,4.06,9.07,9.07v20.88h-18.13v-20.88c0-5,4.06-9.07,9.07-9.07Z" transform="translate(150.13 -185.35) rotate(13.43)" fill="#fff" stroke="#000" stroke-linecap="round" stroke-miterlimit="10" stroke-width=".98"/></clipPath></defs><path d="m677.2,1148.52c-1.38,2.47-2.99,4.79-4.84,6.93l4.84-6.93Z" fill="url(#Dégradé_sans_nom_19)" stroke-width="0"/><path d="m637.13,1052.6l-20.85,29.83-4.18,5.98c-4.1,4.77-9.5,8.52-15.91,10.63l-289.46,95.7c-18.8,6.22-39.1-3.99-45.32-22.8L54.19,545.17c-3.3-9.99-1.97-20.41,2.82-28.9.02-.02.04-.07.06-.1.23-.43.46-.86.7-1.3,5.46-9.98,12.03-18.03,18.58-24.48.61,3.03,1.22,6.04,1.84,9.07l288.26-95.3c18.81-6.22,39.1,3.99,45.32,22.8l207.22,626.78c1.44,4.34,2,8.77,1.78,13.08l16.36-14.21Z" fill="url(#Dégradé_sans_nom_19-2)" stroke="#000" stroke-miterlimit="10"/><rect x="166.64" y="409.25" width="376.61" height="731.88" rx="35.87" ry="35.87" transform="translate(-225.39 150.6) rotate(-18.29)" fill="url(#Dégradé_sans_nom_19-3)" stroke="#000" stroke-miterlimit="10"/><rect x="191.67" y="457.91" width="326.53" height="634.57" rx="31.1" ry="31.1" transform="translate(-225.39 150.6) rotate(-18.29)" fill="url(#Dégradé_sans_nom_25)" stroke="#000" stroke-miterlimit="10"/><ellipse cx="358.87" cy="787.07" rx="116.89" ry="46.75" transform="translate(-425.87 423.13) rotate(-40.61)" fill="url(#Dégradé_sans_nom_5)" stroke="#000" stroke-miterlimit="10" stroke-width=".86"/><ellipse cx="358.87" cy="787.07" rx="46.75" ry="116.89" transform="translate(-451.42 1089.88) rotate(-85.98)" fill="none" stroke="#000" stroke-miterlimit="10" stroke-width=".86"/><path d="m382.64,722.5l.58-.4c.22-.15.17-.5-.08-.58l-.66-.22c-.1-.03-.18-.12-.21-.22l-.2-.67c-.08-.26-.42-.32-.58-.1l-.41.56c-.06.09-.17.14-.27.13l-.7-.02c-.27,0-.43.3-.27.52l.41.56c.06.09.08.2.04.3l-.23.66c-.09.26.15.5.41.42l.66-.22c.1-.03.21-.01.3.05l.55.42c.22.17.53.01.53-.26v-.7c0-.11.05-.21.14-.27Z" fill="#fff" stroke="#000" stroke-miterlimit="10" stroke-width=".29"/><path d="m309.88,736.03s-5.04-7.97,4.36-12.81c0,0,1.73-18.46,14.89-16,0,0,7.08-7.8,15.36-3.1,0,0,6.32-8.89,14.75.35,0,0,5.9-4.4,12.27,5.99,0,0,10.74-.07,8.51,9.93,0,0,2.56,2.48,1.37,4.85,0,0,4.7,3.67,1.6,8.18,0,0,1.08,3.52-1.68,5.22,0,0,3,5.26-3.01,7.88,0,0-4.14,10.23-12.92,5.69,0,0-3.77,5.12-9.27,3.07,0,0-3.44,5.65-10.94,5.2,0,0-6.19,5.45-11.74,2.3,0,0-3.34,3.79-7.1-.18,0,0-3.85,1.75-5.88-3.91,0,0-10.5-1.83-7.91-11.23,0,0-8.84-4.41-2.64-11.42Z" fill="url(#Dégradé_sans_nom_4)"/><g clip-path="url(#clippath)"><path d="m311.96,747.57c-.43,2.63.15,5.39,1.75,7.55,1.49,2.01,3.71,3.39,6.17,3.85.54.1.77-.73.23-.83-2.22-.41-4.27-1.62-5.64-3.43-1.47-1.95-2.08-4.5-1.69-6.91.09-.54-.74-.77-.83-.23h0Z" fill="#fbea77" stroke-width="0"/><path d="m320.04,759c.72,1.23,1.47,2.49,2.62,3.36,1.06.81,2.49,1.24,3.79.82.52-.17.3-1-.23-.83-1.11.36-2.32-.06-3.19-.78-.97-.81-1.62-1.92-2.25-3.01-.28-.48-1.02-.05-.74.43h0Z" fill="#fbea77" stroke-width="0"/><path d="m326.24,763.21c1.99,1.67,4.88,1.99,7.18.77.49-.26.06-1-.43-.74-1.93,1.02-4.45.77-6.14-.64-.42-.35-1.03.25-.61.61h0Z" fill="#fbea77" stroke-width="0"/><path d="m312.47,747.04c-1.63-.59-3.29-2.16-3.94-3.9-.86-2.32-.24-5.08,1.49-6.86.39-.4-.22-1.01-.61-.61-1.34,1.38-2.15,3.38-2.14,5.3.01,2.47,1.33,4.66,3.34,6.04.5.35,1.05.66,1.63.87.52.19.75-.64.23-.83h0Z" fill="#fbea77" stroke-width="0"/><path d="m310.09,735.75c-1.93-4.49-.07-9.87,4.15-12.28.48-.27.05-1.02-.43-.74-4.66,2.65-6.58,8.54-4.46,13.45.22.51.96.07.74-.43h0Z" fill="#fbea77" stroke-width="0"/></g><path d="m309.88,736.03s-5.04-7.97,4.36-12.81c0,0,1.73-18.46,14.89-16,0,0,7.08-7.8,15.36-3.1,0,0,6.32-8.89,14.75.35,0,0,5.9-4.4,12.27,5.99,0,0,10.74-.07,8.51,9.93,0,0,2.56,2.48,1.37,4.85,0,0,4.7,3.67,1.6,8.18,0,0,1.08,3.52-1.68,5.22,0,0,3,5.26-3.01,7.88,0,0-4.14,10.23-12.92,5.69,0,0-3.77,5.12-9.27,3.07,0,0-3.44,5.65-10.94,5.2,0,0-6.19,5.45-11.74,2.3,0,0-3.34,3.79-7.1-.18,0,0-3.85,1.75-5.88-3.91,0,0-10.5-1.83-7.91-11.23,0,0-8.84-4.41-2.64-11.42Z" fill="none" stroke="#000" stroke-miterlimit="10" stroke-width=".29"/><path d="m359.24,704.46c.68.74,1.41,1.6,2.13,2.58.65.89,1.21,1.75,1.68,2.55,0,0,6.03,11.12,4.72,12.52" fill="none" stroke="#000" stroke-linecap="round" stroke-miterlimit="10" stroke-width=".29"/><path d="m314.24,723.22s1.73-1.4,3.13-1.03" fill="none" stroke="#000" stroke-miterlimit="10" stroke-width=".29"/><path d="m309.88,736.03c.22.37.53.8.95,1.23.24.25.48.46.7.63" fill="none" stroke="#000" stroke-linecap="round" stroke-miterlimit="10" stroke-width=".29"/><path d="m327.9,755.4s2.67,1.28,6.07-.19" fill="none" stroke="#000" stroke-linecap="round" stroke-miterlimit="10" stroke-width=".29"/><path d="m331.9,755.81s1.22,1.66,3.34.92" fill="none" stroke="#000" stroke-linecap="round" stroke-miterlimit="10" stroke-width=".29"/><path d="m371.51,710.46s-3.34.04-4.59,1.52" fill="none" stroke="#000" stroke-linecap="round" stroke-miterlimit="10" stroke-width=".29"/><path d="m380.01,720.39s-1.21,2.75-3.17,2.95" fill="none" stroke="#000" stroke-linecap="round" stroke-miterlimit="10" stroke-width=".29"/><path d="m381.3,738.64s-.74-1.58-1.25-1.41" fill="none" stroke="#000" stroke-linecap="round" stroke-miterlimit="10" stroke-width=".29"/><path d="m378.28,746.52s-.81.33-.98-.17" fill="none" stroke="#000" stroke-linecap="round" stroke-miterlimit="10" stroke-width=".29"/><path d="m365.37,752.21s-3.09-.98-3.53-2.32" fill="none" stroke="#000" stroke-linecap="round" stroke-miterlimit="10" stroke-width=".29"/><path d="m362.46,750.72s-1.97,1.4-2.25.74" fill="none" stroke="#000" stroke-linecap="round" stroke-miterlimit="10" stroke-width=".29"/><path d="m329.13,707.22s3.15.1,3.02,1.2" fill="none" stroke="#000" stroke-linecap="round" stroke-miterlimit="10" stroke-width=".29"/><path d="m358.83,730.53s11.12,3.56,9.46,10.58" fill="none" stroke="#000" stroke-linecap="round" stroke-miterlimit="10" stroke-width=".29"/><path d="m360.01,723.67c.73-.5,4.16-2.72,7.76-1.56.7.23,2.14.69,2.86,2.02,1.21,2.23-.59,4.98-.84,5.37-1.91,2.93-5.42,3.34-6.03,3.4" fill="none" stroke="#000" stroke-linecap="round" stroke-miterlimit="10" stroke-width=".29"/><path d="m344.48,704.12s4.11,1.07,2.94,2.17" fill="none" stroke="#000" stroke-linecap="round" stroke-miterlimit="10" stroke-width=".29"/><path d="m347.04,705.15s8.11-3.04,6.59,8.01" fill="none" stroke="#000" stroke-linecap="round" stroke-miterlimit="10" stroke-width=".29"/><path d="m361.73,707.55s3.52.3,3.69.58" fill="none" stroke="#000" stroke-linecap="round" stroke-miterlimit="10" stroke-width=".29"/><path d="m367.96,737.29s.22,1.58,5.65-1.87" fill="none" stroke="#000" stroke-linecap="round" stroke-miterlimit="10" stroke-width=".29"/><path d="m381.38,725.24s-1.26,1.42-1.8,1.18" fill="none" stroke="#000" stroke-linecap="round" stroke-miterlimit="10" stroke-width=".29"/><path d="m382.97,733.41s-.61.73-1.38.1" fill="none" stroke="#000" stroke-linecap="round" stroke-miterlimit="10" stroke-width=".29"/><path d="m341.97,742.01c.41.13,1.66.48,3.13,0,1.48-.49,2.28-1.52,2.52-1.87" fill="none" stroke="#000" stroke-linecap="round" stroke-miterlimit="10" stroke-width=".29"/><path d="m347.46,739.53s.08.9.7.79" fill="none" stroke="#000" stroke-linecap="round" stroke-miterlimit="10" stroke-width=".29"/><path d="m341.77,741.53s.47.76-.09,1.05" fill="none" stroke="#000" stroke-linecap="round" stroke-miterlimit="10" stroke-width=".29"/><path d="m323.53,711.63c1.11,0,1.11-1.72,0-1.72s-1.11,1.72,0,1.72h0Z" fill="#fff" stroke-width="0"/><path d="m321.95,713.1c-1.39,1.4-2.36,3.3-2.66,5.34.01-2.07.71-4.17,2-5.9.14-.19.41-.23.6-.09.21.15.23.47.05.65h0Z" fill="#fff" stroke-width="0"/><path d="m316.15,749.3c-.78,2.21.74,4.8,3.08,5.27-1.2-.13-2.37-.78-3.12-1.8-.75-1.03-1.06-2.39-.8-3.69.05-.23.27-.38.51-.34.25.05.41.32.32.56h0Z" fill="#fff" stroke-width="0"/><path d="m336.66,761.24c1.69.39,3.51.29,5.2-.3-1.61.77-3.47,1.08-5.3.87-.16-.02-.27-.16-.25-.32.02-.17.18-.29.35-.25h0Z" fill="#fff" stroke-width="0"/><path d="m334.43,724.98h0c1.92,0,3.48,1.56,3.48,3.48v8.01h-6.95v-8.01c0-1.92,1.56-3.48,3.48-3.48Z" transform="translate(-212.47 141.91) rotate(-18.29)" fill="#fff"/><g clip-path="url(#clippath-1)"><ellipse cx="333.67" cy="733.25" rx="2.54" ry="5.08" transform="translate(-213.3 141.8) rotate(-18.29)" stroke-width="0"/><path d="m334.02,732.22l.3.05c.12.02.2-.1.15-.21l-.14-.27s-.02-.09,0-.13l.14-.27c.05-.1-.04-.23-.15-.21l-.3.05s-.09,0-.13-.04l-.21-.22c-.08-.08-.23-.04-.24.08l-.04.3s-.04.09-.08.11l-.27.14c-.11.05-.1.2,0,.26l.27.13s.07.06.08.11l.05.3c.02.12.16.16.24.08l.21-.22s.08-.05.13-.04Z" fill="#fff" stroke-width="0"/><path d="m332.91,731.31l.12.02s.08-.04.06-.08l-.06-.11s0-.04,0-.05l.06-.11s-.01-.09-.06-.08l-.12.02s-.04,0-.05-.02l-.09-.09s-.09-.01-.1.03l-.02.12s-.01.04-.03.04l-.11.06s-.04.08,0,.1l.11.05s.03.02.03.04l.02.12s.07.07.1.03l.09-.09s.03-.02.05-.02Z" fill="#fff" stroke-width="0"/><path d="m332.93,732.79c.22,0,.22-.35,0-.35s-.22.35,0,.35h0Z" fill="#fff" stroke-width="0"/></g><path d="m334.43,724.98h0c1.92,0,3.48,1.56,3.48,3.48v8.01h-6.95v-8.01c0-1.92,1.56-3.48,3.48-3.48Z" transform="translate(-212.47 141.91) rotate(-18.29)" fill="none" stroke="#000" stroke-linecap="round" stroke-miterlimit="10" stroke-width=".38"/><path d="m330.87,738.29s4.53-4.31,10.93-3.61" fill="#f5a5d6" stroke="#000" stroke-linecap="round" stroke-miterlimit="10" stroke-width=".29"/><path d="m346.83,720.88h0c1.92,0,3.48,1.56,3.48,3.48v8.01h-6.95v-8.01c0-1.92,1.56-3.48,3.48-3.48Z" transform="translate(-210.56 145.6) rotate(-18.29)" fill="#fff"/><g clip-path="url(#clippath-2)"><ellipse cx="346.07" cy="729.15" rx="2.54" ry="5.08" transform="translate(-211.39 145.49) rotate(-18.29)" stroke-width="0"/><path d="m346.42,728.12l.3.05c.12.02.2-.1.15-.21l-.14-.27s-.02-.09,0-.13l.14-.27c.05-.1-.04-.23-.15-.21l-.3.05s-.09,0-.13-.04l-.21-.22c-.08-.08-.23-.04-.24.08l-.04.3s-.04.09-.08.11l-.27.14c-.11.05-.1.2,0,.26l.27.13s.07.06.08.11l.05.3c.02.12.16.16.24.08l.21-.22s.08-.05.13-.04Z" fill="#fff" stroke-width="0"/><path d="m345.31,727.21l.12.02s.08-.04.06-.08l-.06-.11s0-.04,0-.05l.06-.11s-.01-.09-.06-.08l-.12.02s-.04,0-.05-.02l-.09-.09s-.09-.01-.1.03l-.02.12s-.01.04-.03.04l-.11.06s-.04.08,0,.1l.11.05s.03.02.03.04l.02.12s.07.07.1.03l.09-.09s.03-.02.05-.02Z" fill="#fff" stroke-width="0"/><path d="m345.33,728.69c.22,0,.22-.35,0-.35s-.22.35,0,.35h0Z" fill="#fff" stroke-width="0"/></g><path d="m346.83,720.88h0c1.92,0,3.48,1.56,3.48,3.48v8.01h-6.95v-8.01c0-1.92,1.56-3.48,3.48-3.48Z" transform="translate(-210.56 145.6) rotate(-18.29)" fill="none" stroke="#000" stroke-linecap="round" stroke-miterlimit="10" stroke-width=".38"/><path d="m343.27,734.19s4.53-4.31,10.93-3.61" fill="#f5a5d6" stroke="#000" stroke-linecap="round" stroke-miterlimit="10" stroke-width=".29"/><path d="m355.16,702.48l.79.13c.31.05.54-.27.39-.55l-.38-.71c-.06-.11-.06-.24,0-.35l.37-.71c.14-.28-.09-.6-.4-.54l-.79.14c-.12.02-.25-.02-.33-.11l-.56-.57c-.22-.22-.6-.1-.64.21l-.11.79c-.02.12-.09.23-.2.28l-.72.36c-.28.14-.28.54,0,.68l.72.35c.11.05.19.16.21.28l.12.79c.05.31.43.43.64.21l.56-.58c.09-.09.21-.13.33-.11Z" fill="#fff" stroke="#000" stroke-miterlimit="10" stroke-width=".29"/><path d="m376.38,750.76l1.58.26c.62.1,1.08-.55.79-1.1l-.75-1.42c-.12-.22-.12-.48,0-.7l.74-1.42c.29-.55-.18-1.2-.8-1.09l-1.58.28c-.24.04-.49-.04-.67-.21l-1.13-1.14c-.44-.44-1.2-.19-1.28.42l-.22,1.59c-.03.25-.19.46-.41.57l-1.44.72c-.56.28-.55,1.08,0,1.35l1.44.7c.22.11.38.32.41.56l.24,1.59c.09.62.85.86,1.29.41l1.11-1.15c.17-.18.42-.26.67-.22Z" fill="#fff" stroke="#000" stroke-miterlimit="10" stroke-width=".29"/><path d="m311.4,746.77l.69.11c.27.04.47-.24.34-.48l-.33-.62c-.05-.1-.05-.21,0-.3l.32-.62c.13-.24-.08-.52-.35-.47l-.69.12c-.11.02-.21-.02-.29-.09l-.49-.5c-.19-.19-.52-.08-.56.18l-.1.69c-.01.11-.08.2-.18.25l-.62.31c-.24.12-.24.47,0,.59l.63.31c.1.05.16.14.18.25l.1.69c.04.27.37.37.56.18l.48-.5c.07-.08.18-.11.29-.1Z" fill="#fff" stroke="#000" stroke-miterlimit="10" stroke-width=".29"/><path d="m318.59,766.13l.58-.4c.22-.15.17-.5-.08-.58l-.66-.22c-.1-.03-.18-.12-.21-.22l-.2-.67c-.08-.26-.42-.32-.58-.1l-.41.56c-.06.09-.17.14-.27.13l-.7-.02c-.27,0-.43.3-.27.52l.41.56c.06.09.08.2.04.3l-.23.66c-.09.26.15.5.41.42l.66-.22c.1-.03.21-.01.3.05l.55.42c.22.17.53.01.53-.26v-.7c0-.11.05-.21.14-.27Z" fill="#fff" stroke="#000" stroke-miterlimit="10" stroke-width=".29"/><path d="m317.37,710.45l.28-.19c.11-.07.08-.24-.04-.28l-.32-.11s-.09-.06-.1-.11l-.1-.33c-.04-.13-.2-.16-.28-.05l-.2.27s-.08.07-.13.07h-.34c-.13-.01-.21.14-.13.24l.2.28s.04.1.02.15l-.11.32c-.04.12.07.25.2.21l.32-.1s.1,0,.15.03l.27.21c.1.08.26,0,.26-.13v-.34c0-.05.03-.1.07-.13Z" fill="#fff" stroke="#000" stroke-miterlimit="10" stroke-width=".22"/><path d="m263.84,804.38l13.85,41.91,10.1-3.34c-2.07-3.78-4.1-8.47-5.82-13.67-4.63-14-5.27-26.38-1.42-27.66s10.72,9.05,15.34,23.05c1.72,5.2,2.89,10.18,3.48,14.44l6.54-2.16c-2.07-3.78-4.1-8.47-5.82-13.67-4.63-14-5.27-26.38-1.42-27.66s10.72,9.05,15.34,23.05c1.72,5.2,2.89,10.18,3.48,14.44l10.63-3.51-13.85-41.91c-2.81-8.49-11.96-13.09-20.45-10.29l-19.71,6.51c-8.49,2.81-13.09,11.96-10.29,20.45Z" stroke-width="0"/><path d="m325.46,784.17c-.91-2.75-3.86-4.24-6.6-3.34s.55,10.86,3.29,9.95,4.22-3.87,3.31-6.62Z" stroke-width="0"/><path d="m398.93,759.87l13.81,41.77,15.27-5.05c-.26-.73-.52-1.47-.77-2.22-4.63-14-5.27-26.38-1.42-27.66s10.72,9.05,15.34,23.05c.25.75.48,1.5.71,2.24l13.43-4.44-13.81-41.77c-2.83-8.56-12.07-13.21-20.63-10.38l-11.56,3.82c-8.56,2.83-13.21,12.07-10.38,20.63Zm24.42-1.08c-3.63,1.2-7.54-.77-8.74-4.4s.77-7.54,4.4-8.74,7.54.77,8.74,4.4-.77,7.54-4.4,8.74Z" stroke-width="0"/><path d="m364.92,781.03c.2.58.4,1.17.6,1.76,3.59,10.85,4.89,20.17,2.91,20.82s-6.49-7.61-10.07-18.45c-.2-.6-.39-1.19-.57-1.77l-6.2,2.05c-5.93,1.96-9.16,8.36-7.19,14.3l7.46,22.57,3.86-1.27c-.44-1.19-.87-2.42-1.29-3.7-3.59-10.85-4.89-20.17-2.91-20.82s6.49,7.61,10.07,18.45c.42,1.27.81,2.52,1.16,3.74l4.99-1.65c5.93-1.96,9.16-8.36,7.19-14.3l-7.46-22.57-2.54.84Z" stroke-width="0"/><path d="m321.76,793.83c5.18-1.71,10.55,1.19,16.1,8.71,1.46,2.35,2.59,4.73,3.39,7.14l.18.55c1.92,5.82,2.16,10.89.71,15.24l-8.75,2.89c-.25.08-.42,0-.5-.25l-11.19-33.84.05-.43Z" stroke-width="0"/><path d="m384.22,759.19l4.65,14.06-6.94,2.29c-4.4,1.45-6.79,6.2-5.33,10.6l5.79,17.51c1.45,4.4,6.2,6.79,10.6,5.33l13.37-4.42-13.58-41.07c-1.17-3.55-5-5.48-8.55-4.3h0Zm12.58,42.35l-7.45,2.46-1.92-6.07c-4.08-12.34-3.43-16.02-1.36-16.71s5.05,2.67,8.87,14.23c.5,1.51,1.86,6.09,1.86,6.09Z" stroke-width="0"/><path d="m265.68,801.74l13.85,41.91,10.1-3.34c-2.07-3.78-4.1-8.47-5.82-13.67-4.63-14-5.27-26.38-1.42-27.66s10.72,9.05,15.34,23.05c1.72,5.2,2.89,10.18,3.48,14.44l6.54-2.16c-2.07-3.78-4.1-8.47-5.82-13.67-4.63-14-5.27-26.38-1.42-27.66s10.72,9.05,15.34,23.05c1.72,5.2,2.89,10.18,3.48,14.44l10.63-3.51-13.85-41.91c-2.81-8.49-11.96-13.09-20.45-10.29l-19.71,6.51c-8.49,2.81-13.09,11.96-10.29,20.45Z" fill="#f5a5d6" stroke="#000" stroke-miterlimit="10" stroke-width=".64"/><path d="m327.3,781.53c-.91-2.75-3.86-4.24-6.6-3.34s.55,10.86,3.29,9.95,4.22-3.87,3.31-6.62Z" fill="#f5a5d6" stroke="#000" stroke-miterlimit="10" stroke-width=".64"/><path d="m400.77,757.22l13.81,41.77,15.27-5.05c-.26-.73-.52-1.47-.77-2.22-4.63-14-5.27-26.38-1.42-27.66s10.72,9.05,15.34,23.05c.25.75.48,1.5.71,2.24l13.43-4.44-13.81-41.77c-2.83-8.56-12.07-13.21-20.63-10.38l-11.56,3.82c-8.56,2.83-13.21,12.07-10.38,20.63Zm24.42-1.08c-3.63,1.2-7.54-.77-8.74-4.4-1.2-3.63.77-7.54,4.4-8.74s7.54.77,8.74,4.4-.77,7.54-4.4,8.74Z" fill="#f5a5d6" stroke="#000" stroke-miterlimit="10" stroke-width=".64"/><path d="m366.77,778.38c.2.58.4,1.17.6,1.76,3.59,10.85,4.89,20.17,2.91,20.82s-6.49-7.61-10.07-18.45c-.2-.6-.39-1.19-.57-1.77l-6.2,2.05c-5.93,1.96-9.16,8.36-7.19,14.3l7.46,22.57,3.86-1.27c-.44-1.19-.87-2.42-1.29-3.7-3.59-10.85-4.89-20.17-2.91-20.82s6.49,7.61,10.07,18.45c.42,1.27.81,2.52,1.16,3.74l4.99-1.65c5.93-1.96,9.16-8.36,7.19-14.3l-7.46-22.57-2.54.84Z" fill="#f5a5d6" stroke="#000" stroke-miterlimit="10" stroke-width=".64"/><path d="m323.6,791.19c5.18-1.71,10.55,1.19,16.1,8.71,1.46,2.35,2.59,4.73,3.39,7.14l.18.55c1.92,5.82,2.16,10.89.71,15.24l-8.75,2.89c-.25.08-.42,0-.5-.25l-11.19-33.84.05-.43Z" fill="#f5a5d6" stroke="#000" stroke-miterlimit="10" stroke-width=".64"/><path d="m386.06,756.54l4.65,14.06-6.94,2.29c-4.4,1.45-6.79,6.2-5.33,10.6l5.79,17.51c1.45,4.4,6.2,6.79,10.6,5.33l13.37-4.42-13.58-41.07c-1.17-3.55-5-5.48-8.55-4.3h0Zm12.58,42.35l-7.45,2.46-1.92-6.07c-4.08-12.34-3.43-16.02-1.36-16.71s5.05,2.67,8.87,14.23c.5,1.51,1.86,6.09,1.86,6.09Z" fill="#f5a5d6" stroke="#000" stroke-miterlimit="10" stroke-width=".64"/><polygon points="277.69 846.29 279.54 843.64 289.64 840.3 287.8 842.95 277.69 846.29" stroke-width="0"/><polygon points="299.38 839.12 301.23 836.47 307.77 834.31 305.92 836.96 299.38 839.12" stroke-width="0"/><polygon points="317.51 833.12 319.35 830.48 329.98 826.97 328.14 829.61 317.51 833.12" stroke-width="0"/><polygon points="332.9 828.11 335.24 825.72 343.99 822.82 342.15 825.47 332.9 828.11" stroke-width="0"/><polygon points="351.86 822.31 353.7 819.66 357.56 818.39 355.71 821.03 351.86 822.31" stroke-width="0"/><polygon points="364.92 781.03 366.77 778.38 367.93 781.9 366.09 784.55 364.92 781.03" stroke-width="0"/><polygon points="386.06 756.54 384.22 759.19 385.78 763.92 388.23 763.11 386.06 756.54" stroke-width="0"/><polygon points="430.26 794.15 428 796.59 412.74 801.64 414.58 799 430.26 794.15" stroke-width="0"/><polygon points="441.88 792.01 443.72 789.36 457.14 784.92 455.3 787.57 441.88 792.01" stroke-width="0"/><polygon points="318.34 781.19 319.75 778.64 319.87 782.25 318.81 782.6 318.34 781.19" stroke-width="0"/><polygon points="321.76 793.83 323.6 791.19 324.67 795.01 322.36 796.23 321.76 793.83" stroke-width="0"/><polygon points="408.19 801.92 406.35 804.56 403.42 805.53 403.73 803.39 408.19 801.92" stroke-width="0"/><path d="m322.27,780.55c.89-.29.43-1.67-.46-1.38s-.43,1.67.46,1.38h0Z" fill="#fff" stroke-width="0"/><path d="m323.91,781.5c.1.09.19.18.28.28.04.04.02.03-.04-.04.02.03.05.05.07.08.04.05.09.11.13.17.07.1.14.2.21.3.05.09.16.22.18.32-.05-.1-.05-.11-.02-.03.01.02.02.05.03.07.02.06.05.11.07.17.04.11.09.23.12.35s.06.24.09.36c.02.08.01.07,0-.04,0,.03.01.07.02.1.01.07.02.14.03.21.04.38.36.73.76.69.37-.04.73-.36.69-.76-.13-1.27-.71-2.44-1.65-3.31-.28-.26-.78-.24-1.02.06s-.23.75.06,1.02h0Z" fill="#fff" stroke-width="0"/><path d="m326.98,793.9c.89-.29.43-1.67-.46-1.38s-.43,1.67.46,1.38h0Z" fill="#fff" stroke-width="0"/><path d="m330.74,796.17c3.61,2.16,6.39,5.56,7.84,9.51.32.87,1.7.42,1.38-.46-1.58-4.33-4.61-7.98-8.56-10.35-.8-.48-1.45.82-.65,1.3h0Z" fill="#fff" stroke-width="0"/><path d="m297.57,778.06c.89-.29.43-1.67-.46-1.38s-.43,1.67.46,1.38h0Z" fill="#fff" stroke-width="0"/><path d="m300.29,777.83c4.98.12,9.68,2.98,12.16,7.27.47.81,1.67,0,1.21-.81-2.75-4.75-7.98-7.78-13.44-7.92-.93-.02-.85,1.43.07,1.45h0Z" fill="#fff" stroke-width="0"/><path d="m310.73,802.1c3.87,6.48,6.72,13.51,8.47,20.84.22.91,1.59.45,1.38-.46-1.78-7.46-4.71-14.61-8.64-21.19-.48-.8-1.69,0-1.21.81h0Z" fill="#fff" stroke-width="0"/><path d="m285.32,798.07c1.61,1.15,2.97,2.58,4.01,4.26.21.33.69.41,1.01.2.34-.22.41-.67.2-1.01-1.1-1.78-2.55-3.34-4.25-4.55-.32-.23-.75-.25-1.02.06-.24.27-.26.8.06,1.02h0Z" fill="#fff" stroke-width="0"/><path d="m286.25,839.93c.89-.29.43-1.67-.46-1.38s-.43,1.67.46,1.38h0Z" fill="#fff" stroke-width="0"/><path d="m350.3,785.87c-2.26,2.53-3.48,5.88-3.4,9.26.02.94,1.47.86,1.45-.07-.07-3.01,1.04-5.98,3.04-8.23.62-.7-.46-1.66-1.09-.96h0Z" fill="#fff" stroke-width="0"/><path d="m353.34,785.87c.89-.29.43-1.67-.46-1.38s-.43,1.67.46,1.38h0Z" fill="#fff" stroke-width="0"/><path d="m366.52,813.78c.89-.29.43-1.67-.46-1.38s-.43,1.67.46,1.38h0Z" fill="#fff" stroke-width="0"/><path d="m383.67,775.84c.89-.29.43-1.67-.46-1.38s-.43,1.67.46,1.38h0Z" fill="#fff" stroke-width="0"/><path d="m381.36,776.48c-1.18,1.8-1.71,4.03-1.49,6.17.04.39.35.71.76.69.38-.02.73-.37.69-.76-.2-1.94.25-3.8,1.34-5.45.22-.33,0-.81-.32-.97-.38-.19-.76,0-.97.32h0Z" fill="#fff" stroke-width="0"/><path d="m407.85,740.83c-3.51,4.03-5.44,9.27-5.4,14.61,0,.94,1.45.86,1.45-.07-.03-4.96,1.79-9.84,5.04-13.58.61-.7-.47-1.67-1.09-.96h0Z" fill="#fff" stroke-width="0"/><path d="m411.11,740.62c.89-.29.43-1.67-.46-1.38s-.43,1.67.46,1.38h0Z" fill="#fff" stroke-width="0"/><path d="m434.42,766.47c4.4,4.82,7.49,10.72,9.02,17.07.22.91,1.59.45,1.38-.46-1.59-6.61-4.86-12.69-9.43-17.7-.63-.69-1.58.4-.96,1.09h0Z" fill="#fff" stroke-width="0"/><path d="m445.39,786.72c.89-.29.43-1.67-.46-1.38s-.43,1.67.46,1.38h0Z" fill="#fff" stroke-width="0"/><path d="m559.74,1156.67l21.05,11.06c8.18,4.3,17.75-2.65,16.19-11.76l-4.02-23.43c-.62-3.62.58-7.31,3.21-9.87l17.03-16.6c6.62-6.45,2.97-17.7-6.18-19.03l-23.53-3.42c-3.63-.53-6.77-2.81-8.4-6.1l-10.52-21.32c-4.09-8.29-15.92-8.29-20.01,0l-10.52,21.32c-1.63,3.29-4.77,5.57-8.4,6.1l-23.53,3.42c-9.15,1.33-12.8,12.57-6.18,19.03l17.03,16.6c2.63,2.56,3.83,6.26,3.21,9.87l-4.02,23.43c-1.56,9.11,8,16.06,16.19,11.76l21.05-11.06c3.25-1.71,7.13-1.71,10.38,0Z" fill="#fff" stroke="#000" stroke-miterlimit="10" stroke-width="2"/><path d="m476.36,319.51l15.77,8.29c6.13,3.23,13.3-1.98,12.13-8.81l-3.01-17.56c-.47-2.71.43-5.48,2.4-7.4l12.76-12.44c4.96-4.84,2.22-13.27-4.63-14.26l-17.64-2.56c-2.72-.4-5.08-2.11-6.3-4.57l-7.89-15.98c-3.07-6.21-11.93-6.21-15,0l-7.89,15.98c-1.22,2.47-3.57,4.18-6.3,4.57l-17.64,2.56c-6.86,1-9.6,9.43-4.63,14.26l12.76,12.44c1.97,1.92,2.87,4.69,2.4,7.4l-3.01,17.56c-1.17,6.83,6,12.04,12.13,8.81l15.77-8.29c2.44-1.28,5.35-1.28,7.78,0Z" fill="#fff" stroke="#000" stroke-miterlimit="10" stroke-width="2"/><path d="m603.46,190.71h403.94c17.77,0,32.2,14.43,32.2,32.2v553.02c0,17.77-14.43,32.2-32.2,32.2h-403.94V190.71h0Z" transform="translate(138.5 -177.19) rotate(13.43)" fill="url(#Dégradé_sans_nom_19-4)" stroke="#000" stroke-miterlimit="10" stroke-width=".64"/><polygon points="699.04 176.51 684.99 232.04 718.58 240.06 725.88 209.49 699.04 176.51" fill="url(#Dégradé_sans_nom_25-2)" stroke="#000" stroke-miterlimit="10" stroke-width=".64"/><path d="m1091.88,306.18l-27.83-46.46-363.49-86.82s-58.91,85.45,391.32,133.28Z" fill="url(#Dégradé_sans_nom_25-3)" stroke="#000" stroke-miterlimit="10" stroke-width=".64"/><path d="m624.92,242.18h403.94c17.77,0,32.2,14.43,32.2,32.2v553.02c0,17.77-14.43,32.2-32.2,32.2h-403.94V242.18h0Z" transform="translate(151.04 -180.77) rotate(13.43)" fill="url(#Dégradé_sans_nom_19-5)" stroke="#000" stroke-miterlimit="10" stroke-width=".64"/><path d="m681.14,148.5s-23.82,30.46,21.47,51.46l-143.44,600.52s-33.29-1.95-21.47-51.46c11.83-49.51,136.3-573.99,136.3-573.99" fill="url(#Dégradé_sans_nom_19-6)" stroke="#000" stroke-miterlimit="10" stroke-width=".64"/><rect x="788.16" y="496.04" width="109.67" height="109.67" rx="23.34" ry="23.34" transform="translate(151.04 -180.77) rotate(13.43)" fill="url(#Dégradé_sans_nom_4-2)" stroke="#000" stroke-miterlimit="10" stroke-width=".64"/><path d="m828.85,521.85h0c5,0,9.07,4.06,9.07,9.07v20.88h-18.13v-20.88c0-5,4.06-9.07,9.07-9.07Z" transform="translate(147.39 -177.87) rotate(13.43)" fill="#fff"/><g clip-path="url(#clippath-3)"><ellipse cx="823.7" cy="541.39" rx="13.25" ry="6.62" transform="translate(105.77 1216.78) rotate(-76.57)" stroke-width="0"/><path d="m825.89,539.58l.6.52c.23.2.6.05.62-.26l.05-.79c0-.12.08-.23.18-.3l.68-.41c.26-.16.23-.55-.05-.66l-.74-.29c-.11-.05-.2-.14-.23-.26l-.18-.77c-.07-.3-.45-.39-.65-.15l-.51.61c-.08.09-.2.14-.32.13l-.79-.07c-.31-.03-.51.31-.35.57l.42.67c.07.1.08.23.03.35l-.31.73c-.12.28.14.58.43.51l.77-.2c.12-.03.24,0,.34.08Z" fill="#fff" stroke-width="0"/><path d="m824.68,536.02l.24.21c.09.08.24.02.25-.1l.02-.32s.03-.09.07-.12l.28-.17c.11-.06.09-.22-.02-.27l-.3-.12s-.08-.06-.09-.11l-.07-.31c-.03-.12-.18-.16-.26-.06l-.21.25s-.08.06-.13.05l-.32-.03c-.12-.01-.21.13-.14.23l.17.27s.03.09.01.14l-.13.3c-.05.12.05.24.18.21l.31-.08s.1,0,.14.03Z" fill="#fff" stroke-width="0"/><path d="m822.93,539.42c.59,0,.59-.91,0-.91s-.59.91,0,.91h0Z" fill="#fff" stroke-width="0"/></g><path d="m828.85,521.85h0c5,0,9.07,4.06,9.07,9.07v20.88h-18.13v-20.88c0-5,4.06-9.07,9.07-9.07Z" transform="translate(147.39 -177.87) rotate(13.43)" fill="none" stroke="#000" stroke-linecap="round" stroke-miterlimit="10" stroke-width=".98"/><path d="m810.58,548.72s15.95-3.36,29.18,6.97" fill="#f5a5d6" stroke="#000" stroke-linecap="round" stroke-miterlimit="10" stroke-width=".75"/><path d="m861.96,529.76h0c5,0,9.07,4.06,9.07,9.07v20.88h-18.13v-20.88c0-5,4.06-9.07,9.07-9.07Z" transform="translate(150.13 -185.35) rotate(13.43)" fill="#fff"/><g clip-path="url(#clippath-4)"><ellipse cx="856.82" cy="549.3" rx="13.25" ry="6.62" transform="translate(123.5 1255.06) rotate(-76.57)" stroke-width="0"/><path d="m859.01,547.49l.6.52c.23.2.6.05.62-.26l.05-.79c0-.12.08-.23.18-.3l.68-.41c.26-.16.23-.55-.05-.66l-.74-.29c-.11-.05-.2-.14-.23-.26l-.18-.77c-.07-.3-.45-.39-.65-.15l-.51.61c-.08.09-.2.14-.32.13l-.79-.07c-.31-.03-.51.31-.35.57l.42.67c.07.1.08.23.03.35l-.31.73c-.12.28.14.58.43.51l.77-.2c.12-.03.24,0,.34.08Z" fill="#fff" stroke-width="0"/><path d="m857.8,543.94l.24.21c.09.08.24.02.25-.1l.02-.32s.03-.09.07-.12l.28-.17c.11-.06.09-.22-.02-.27l-.3-.12s-.08-.06-.09-.11l-.07-.31c-.03-.12-.18-.16-.26-.06l-.21.25s-.08.06-.13.05l-.32-.03c-.12-.01-.21.13-.14.23l.17.27s.03.09.01.14l-.13.3c-.05.12.05.24.18.21l.31-.08s.1,0,.14.03Z" fill="#fff" stroke-width="0"/><path d="m856.05,547.33c.59,0,.59-.91,0-.91s-.59.91,0,.91h0Z" fill="#fff" stroke-width="0"/></g><path d="m861.96,529.76h0c5,0,9.07,4.06,9.07,9.07v20.88h-18.13v-20.88c0-5,4.06-9.07,9.07-9.07Z" transform="translate(150.13 -185.35) rotate(13.43)" fill="none" stroke="#000" stroke-linecap="round" stroke-miterlimit="10" stroke-width=".98"/><path d="m843.7,556.63s15.95-3.36,29.18,6.97" fill="#f5a5d6" stroke="#000" stroke-linecap="round" stroke-miterlimit="10" stroke-width=".75"/><path d="m826.74,570.56c1.04,1.23,4.35,4.83,10.06,6.2,5.72,1.37,10.31-.35,11.79-.98" fill="none" stroke="#000" stroke-linecap="round" stroke-miterlimit="10" stroke-width="1.08"/><path d="m849.27,573.48s-1.53,3.02.66,3.93" fill="none" stroke="#000" stroke-linecap="round" stroke-miterlimit="10" stroke-width="1.08"/><path d="m827.08,568.62s0,3.39-2.37,3.21" fill="none" stroke="#000" stroke-linecap="round" stroke-miterlimit="10" stroke-width="1.08"/><line x1="1070.58" y1="270.61" x2="918.61" y2="234.31" fill="none" stroke="#000" stroke-miterlimit="10" stroke-width=".64"/><line x1="1023.42" y1="266.02" x2="852.07" y2="225.1" fill="none" stroke="#000" stroke-miterlimit="10" stroke-width=".64"/><line x1="853.58" y1="218.78" x2="780.23" y2="201.26" fill="none" stroke="#000" stroke-miterlimit="10" stroke-width=".64"/><line x1="796.91" y1="211.92" x2="751.73" y2="201.13" fill="none" stroke="#000" stroke-miterlimit="10" stroke-width=".64"/><line x1="1078.69" y1="284.16" x2="1014.09" y2="268.73" fill="none" stroke="#000" stroke-miterlimit="10" stroke-width=".64"/><line x1="928.42" y1="248.26" x2="764.11" y2="209.02" fill="none" stroke="#000" stroke-miterlimit="10" stroke-width=".64"/><line x1="696.81" y1="185.33" x2="727.1" y2="192.56" fill="none" stroke="#000" stroke-miterlimit="10" stroke-width=".64"/><path d="m1002.91,910.91l25.2-.67c9.8-.26,15.05-11.65,8.88-19.27l-15.86-19.59c-2.45-3.03-3.25-7.06-2.15-10.8l7.15-24.18c2.78-9.4-6.43-17.91-15.58-14.4l-23.54,9.03c-3.63,1.39-7.72.91-10.93-1.29l-20.78-14.27c-8.08-5.55-19.02.58-18.51,10.37l1.32,25.18c.2,3.89-1.52,7.63-4.61,10l-19.99,15.36c-7.78,5.97-5.33,18.27,4.14,20.81l24.35,6.53c3.76,1.01,6.78,3.8,8.09,7.47l8.43,23.76c3.28,9.24,15.73,10.71,21.07,2.49l13.73-21.14c2.12-3.26,5.71-5.28,9.6-5.38Z" fill="#fff" stroke="#000" stroke-miterlimit="10" stroke-width="3"/></svg>