<?xml version="1.0" encoding="UTF-8"?><svg id="Calque_1" xmlns="http://www.w3.org/2000/svg" xmlns:xlink="http://www.w3.org/1999/xlink" viewBox="0 0 1172.59 1345.07"><defs><linearGradient id="Dégradé_sans_nom_19" x1="33.36" y1="497.19" x2="419.56" y2="1197.34" gradientTransform="translate(-153.6 125.17) rotate(-18.29)" gradientUnits="userSpaceOnUse"><stop offset="0" stop-color="#fff"/><stop offset="1" stop-color="#c2c5f8"/></linearGradient><linearGradient id="Dégradé_sans_nom_19-2" x1="44.85" y1="1095.07" x2="402.8" y2="639.21" gradientTransform="translate(94.54 4.02)" xlink:href="#Dégradé_sans_nom_19"/><linearGradient id="Dégradé_sans_nom_25" x1="-29.68" y1="320.23" x2="395.58" y2="1091.2" gradientTransform="translate(94.54 4.02)" gradientUnits="userSpaceOnUse"><stop offset="0" stop-color="#f5a5d6"/><stop offset=".16" stop-color="#f7bfe2"/><stop offset=".37" stop-color="#fbdbee"/><stop offset=".58" stop-color="#fdeff7"/><stop offset=".79" stop-color="#fefbfd"/><stop offset="1" stop-color="#fff"/></linearGradient><linearGradient id="Dégradé_sans_nom_5" x1="202.47" y1="784.37" x2="312.37" y2="915.55" gradientTransform="translate(437.66 -29.16) rotate(22.31)" gradientUnits="userSpaceOnUse"><stop offset="0" stop-color="#fff"/><stop offset=".03" stop-color="#fefcf0"/><stop offset=".09" stop-color="#fdf7cf"/><stop offset=".16" stop-color="#fcf3b4"/><stop offset=".24" stop-color="#fcef9d"/><stop offset=".34" stop-color="#fbed8c"/><stop offset=".45" stop-color="#fbeb7f"/><stop offset=".61" stop-color="#fbea78"/><stop offset="1" stop-color="#fbea77"/></linearGradient><linearGradient id="Dégradé_sans_nom_4" x1="235.07" y1="745.32" x2="272.56" y2="821.62" gradientTransform="translate(-153.6 125.17) rotate(-18.29)" gradientUnits="userSpaceOnUse"><stop offset="0" stop-color="#fff"/><stop offset="0" stop-color="#fefcfe"/><stop offset=".08" stop-color="#fbe1f1"/><stop offset=".17" stop-color="#f9cbe7"/><stop offset=".27" stop-color="#f7badf"/><stop offset=".4" stop-color="#f5adda"/><stop offset=".57" stop-color="#f5a6d6"/><stop offset="1" stop-color="#f5a5d6"/></linearGradient><clipPath id="clippath"><path d="m301.59,795.98s-5.04-7.97,4.36-12.81c0,0,1.73-18.46,14.89-16,0,0,7.08-7.8,15.36-3.1,0,0,6.32-8.89,14.75.35,0,0,5.9-4.4,12.27,5.99,0,0,10.74-.07,8.51,9.93,0,0,2.56,2.48,1.37,4.85,0,0,4.7,3.67,1.6,8.18,0,0,1.08,3.52-1.68,5.22,0,0,3,5.26-3.01,7.88,0,0-4.14,10.23-12.92,5.69,0,0-3.77,5.12-9.27,3.07,0,0-3.44,5.65-10.94,5.2,0,0-6.19,5.45-11.74,2.3,0,0-3.34,3.79-7.1-.18,0,0-3.85,1.75-5.88-3.91,0,0-10.5-1.83-7.91-11.23,0,0-8.84-4.41-2.64-11.42Z" fill="url(#Dégradé_sans_nom_4)" stroke="#000" stroke-miterlimit="10" stroke-width=".29"/></clipPath><clipPath id="clippath-1"><path d="m326.14,784.93h0c1.92,0,3.48,1.56,3.48,3.48v8.01h-6.95v-8.01c0-1.92,1.56-3.48,3.48-3.48Z" transform="translate(-231.71 142.34) rotate(-18.29)" fill="#fff" stroke="#000" stroke-linecap="round" stroke-miterlimit="10" stroke-width=".38"/></clipPath><clipPath id="clippath-2"><path d="m338.54,780.83h0c1.92,0,3.48,1.56,3.48,3.48v8.01h-6.95v-8.01c0-1.92,1.56-3.48,3.48-3.48Z" transform="translate(-229.79 146.03) rotate(-18.29)" fill="#fff" stroke="#000" stroke-linecap="round" stroke-miterlimit="10" stroke-width=".38"/></clipPath><linearGradient id="Dégradé_sans_nom_23" x1="1178.3" y1="406" x2="1313.9" y2="651.84" gradientTransform="translate(-864.44 125.17) rotate(-18.29)" gradientUnits="userSpaceOnUse"><stop offset="0" stop-color="#fbea77"/><stop offset="1" stop-color="#fff"/></linearGradient><linearGradient id="Dégradé_sans_nom_23-2" x1="1182.33" y1="615.93" x2="1308.02" y2="455.87" gradientTransform="translate(-763.63 -295.26)" xlink:href="#Dégradé_sans_nom_23"/><linearGradient id="Dégradé_sans_nom_26" x1="1172.5" y1="373.5" x2="1321.82" y2="644.21" gradientTransform="translate(-763.63 -295.26)" gradientUnits="userSpaceOnUse"><stop offset="0" stop-color="#fff"/><stop offset=".5" stop-color="#fdfdfe"/><stop offset=".68" stop-color="#f6f6fe"/><stop offset=".8" stop-color="#eaebfc"/><stop offset=".9" stop-color="#d9dbfa"/><stop offset=".99" stop-color="#c4c7f8"/><stop offset="1" stop-color="#c2c5f8"/></linearGradient><linearGradient id="Dégradé_sans_nom_19-3" x1="500.22" y1="1225.6" x2="500.36" y2="1225.76" xlink:href="#Dégradé_sans_nom_19"/><linearGradient id="Dégradé_sans_nom_4-2" x1="511.8" y1="367.55" x2="754.49" y2="861.46" gradientTransform="matrix(1,0,0,1,0,0)" xlink:href="#Dégradé_sans_nom_4"/><linearGradient id="Dégradé_sans_nom_4-3" x1="511.8" y1="367.55" x2="754.49" y2="861.46" gradientTransform="matrix(1,0,0,1,0,0)" xlink:href="#Dégradé_sans_nom_4"/><clipPath id="clippath-3"><path d="m424.76,590.67s-14.77-59.19,52.83-69.89c0,0,48.15-109.92,124.02-68.09,0,0,59.33-33.56,100.67,12.16,0,0,56.9-41.83,89.97,32.1,0,0,45.23-15.08,63.23,61.77,0,0,66.14,21.4,32.1,78.3,0,0,10.7,20.43-1.46,32.59,0,0,21.4,32.1-6.81,53.5,0,0-.49,23.83-20.91,28.69,0,0,7.78,38.42-34.53,42.31,0,0-46.2,54.47-90.95,8.75,0,0-33.56,23.83-63.23,0,0,0-32.59,27.72-77.82,9.73,0,0-49.12,20.91-76.84-9.73,0,0-28.21,16.54-43.29-15.56,0,0-27.24,2.92-28.21-35.99,0,0-60.79-32.59-25.78-85.11,0,0-45.36-45.03,6.99-75.53Z" fill="url(#Dégradé_sans_nom_4-3)" stroke="#000" stroke-miterlimit="10" stroke-width="1.86"/></clipPath><clipPath id="clippath-4"><path d="m670.95,570.76h0c12.42,0,22.51,10.09,22.51,22.51v51.83h-45.02v-51.83c0-12.42,10.09-22.51,22.51-22.51Z" fill="#fff" stroke="#000" stroke-linecap="round" stroke-miterlimit="10" stroke-width="2.44"/></clipPath><clipPath id="clippath-5"><path d="m586.42,570.76h0c12.42,0,22.51,10.09,22.51,22.51v51.83h-45.02v-51.83c0-12.42,10.09-22.51,22.51-22.51Z" fill="#fff" stroke="#000" stroke-linecap="round" stroke-miterlimit="10" stroke-width="2.44"/></clipPath><linearGradient id="Dégradé_sans_nom_7" x1="705.82" y1="542.4" x2="913.53" y2="918.97" gradientTransform="translate(1974.25 125.17) rotate(-161.71) scale(1 -1)" gradientUnits="userSpaceOnUse"><stop offset="0" stop-color="#fbea77"/><stop offset="1" stop-color="#c0fcc8"/></linearGradient><linearGradient id="Dégradé_sans_nom_7-2" x1="711.99" y1="863.97" x2="904.52" y2="618.78" gradientTransform="translate(142.29 1274.19) scale(1 -1)" xlink:href="#Dégradé_sans_nom_7"/><linearGradient id="Dégradé_sans_nom_24" x1="925.39" y1="216.69" x2="992.09" y2="770.95" gradientTransform="translate(2056.04 773.31) rotate(161.71)" gradientUnits="userSpaceOnUse"><stop offset="0" stop-color="#f5a5d6"/><stop offset=".08" stop-color="#f7bce0"/><stop offset=".19" stop-color="#fad4eb"/><stop offset=".31" stop-color="#fce7f4"/><stop offset=".46" stop-color="#fdf4fa"/><stop offset=".64" stop-color="#fefcfd"/><stop offset="1" stop-color="#fff"/></linearGradient></defs><path d="m628.84,1112.54l-20.85,29.83-4.18,5.98c-4.1,4.77-9.5,8.52-15.91,10.63l-289.46,95.7c-18.8,6.22-39.1-3.99-45.32-22.8L45.91,605.11c-3.3-9.99-1.97-20.41,2.82-28.9.02-.02.04-.07.06-.1.23-.43.46-.86.7-1.3,5.46-9.98,12.03-18.03,18.58-24.48.61,3.03,1.22,6.04,1.84,9.07l288.26-95.3c18.81-6.22,39.1,3.99,45.32,22.8l207.22,626.78c1.44,4.34,2,8.77,1.78,13.08l16.36-14.21Z" fill="url(#Dégradé_sans_nom_19)" stroke="#000" stroke-miterlimit="10"/><rect x="158.35" y="469.2" width="376.61" height="731.88" rx="35.87" ry="35.87" transform="translate(-244.63 151.03) rotate(-18.29)" fill="url(#Dégradé_sans_nom_19-2)" stroke="#000" stroke-miterlimit="10"/><rect x="183.39" y="517.85" width="326.53" height="634.57" rx="31.1" ry="31.1" transform="translate(-244.63 151.03) rotate(-18.29)" fill="url(#Dégradé_sans_nom_25)" stroke="#000" stroke-miterlimit="10"/><ellipse cx="350.58" cy="847.01" rx="116.89" ry="46.75" transform="translate(-466.88 432.17) rotate(-40.61)" fill="url(#Dégradé_sans_nom_5)" stroke="#000" stroke-miterlimit="10" stroke-width=".86"/><ellipse cx="350.58" cy="847.01" rx="46.75" ry="116.89" transform="translate(-518.92 1137.36) rotate(-85.98)" fill="none" stroke="#000" stroke-miterlimit="10" stroke-width=".86"/><path d="m374.35,782.44l.58-.4c.22-.15.17-.5-.08-.58l-.66-.22c-.1-.03-.18-.12-.21-.22l-.2-.67c-.08-.26-.42-.32-.58-.1l-.41.56c-.06.09-.17.14-.27.13l-.7-.02c-.27,0-.43.3-.27.52l.41.56c.06.09.08.2.04.3l-.23.66c-.09.26.15.5.41.42l.66-.22c.1-.03.21-.01.3.05l.55.42c.22.17.53.01.53-.26v-.7c0-.11.05-.21.14-.27Z" fill="#fff" stroke="#000" stroke-miterlimit="10" stroke-width=".29"/><path d="m301.59,795.98s-5.04-7.97,4.36-12.81c0,0,1.73-18.46,14.89-16,0,0,7.08-7.8,15.36-3.1,0,0,6.32-8.89,14.75.35,0,0,5.9-4.4,12.27,5.99,0,0,10.74-.07,8.51,9.93,0,0,2.56,2.48,1.37,4.85,0,0,4.7,3.67,1.6,8.18,0,0,1.08,3.52-1.68,5.22,0,0,3,5.26-3.01,7.88,0,0-4.14,10.23-12.92,5.69,0,0-3.77,5.12-9.27,3.07,0,0-3.44,5.65-10.94,5.2,0,0-6.19,5.45-11.74,2.3,0,0-3.34,3.79-7.1-.18,0,0-3.85,1.75-5.88-3.91,0,0-10.5-1.83-7.91-11.23,0,0-8.84-4.41-2.64-11.42Z" fill="url(#Dégradé_sans_nom_4)"/><g clip-path="url(#clippath)"><path d="m303.67,807.51c-.43,2.63.15,5.39,1.75,7.55,1.49,2.01,3.71,3.39,6.17,3.85.54.1.77-.73.23-.83-2.22-.41-4.27-1.62-5.64-3.43-1.47-1.95-2.08-4.5-1.69-6.91.09-.54-.74-.77-.83-.23h0Z" fill="#fbea77" stroke-width="0"/><path d="m311.76,818.94c.72,1.23,1.47,2.49,2.62,3.36,1.06.81,2.49,1.24,3.79.82.52-.17.3-1-.23-.83-1.11.36-2.32-.06-3.19-.78-.97-.81-1.62-1.92-2.25-3.01-.28-.48-1.02-.05-.74.43h0Z" fill="#fbea77" stroke-width="0"/><path d="m317.95,823.15c1.99,1.67,4.88,1.99,7.18.77.49-.26.06-1-.43-.74-1.93,1.02-4.45.77-6.14-.64-.42-.35-1.03.25-.61.61h0Z" fill="#fbea77" stroke-width="0"/><path d="m304.19,806.98c-1.63-.59-3.29-2.16-3.94-3.9-.86-2.32-.24-5.08,1.49-6.86.39-.4-.22-1.01-.61-.61-1.34,1.38-2.15,3.38-2.14,5.3.01,2.47,1.33,4.66,3.34,6.04.5.35,1.05.66,1.63.87.52.19.75-.64.23-.83h0Z" fill="#fbea77" stroke-width="0"/><path d="m301.81,795.69c-1.93-4.49-.07-9.87,4.15-12.28.48-.27.05-1.02-.43-.74-4.66,2.65-6.58,8.54-4.46,13.45.22.51.96.07.74-.43h0Z" fill="#fbea77" stroke-width="0"/></g><path d="m301.59,795.98s-5.04-7.97,4.36-12.81c0,0,1.73-18.46,14.89-16,0,0,7.08-7.8,15.36-3.1,0,0,6.32-8.89,14.75.35,0,0,5.9-4.4,12.27,5.99,0,0,10.74-.07,8.51,9.93,0,0,2.56,2.48,1.37,4.85,0,0,4.7,3.67,1.6,8.18,0,0,1.08,3.52-1.68,5.22,0,0,3,5.26-3.01,7.88,0,0-4.14,10.23-12.92,5.69,0,0-3.77,5.12-9.27,3.07,0,0-3.44,5.65-10.94,5.2,0,0-6.19,5.45-11.74,2.3,0,0-3.34,3.79-7.1-.18,0,0-3.85,1.75-5.88-3.91,0,0-10.5-1.83-7.91-11.23,0,0-8.84-4.41-2.64-11.42Z" fill="none" stroke="#000" stroke-miterlimit="10" stroke-width=".29"/><path d="m350.95,764.41c.68.74,1.41,1.6,2.13,2.58.65.89,1.21,1.75,1.68,2.55,0,0,6.03,11.12,4.72,12.52" fill="none" stroke="#000" stroke-linecap="round" stroke-miterlimit="10" stroke-width=".29"/><path d="m305.95,783.16s1.73-1.4,3.13-1.03" fill="none" stroke="#000" stroke-miterlimit="10" stroke-width=".29"/><path d="m301.59,795.98c.22.37.53.8.95,1.23.24.25.48.46.7.63" fill="none" stroke="#000" stroke-linecap="round" stroke-miterlimit="10" stroke-width=".29"/><path d="m319.61,815.35s2.67,1.28,6.07-.19" fill="none" stroke="#000" stroke-linecap="round" stroke-miterlimit="10" stroke-width=".29"/><path d="m323.62,815.76s1.22,1.66,3.34.92" fill="none" stroke="#000" stroke-linecap="round" stroke-miterlimit="10" stroke-width=".29"/><path d="m363.22,770.4s-3.34.04-4.59,1.52" fill="none" stroke="#000" stroke-linecap="round" stroke-miterlimit="10" stroke-width=".29"/><path d="m371.73,780.33s-1.21,2.75-3.17,2.95" fill="none" stroke="#000" stroke-linecap="round" stroke-miterlimit="10" stroke-width=".29"/><path d="m373.01,798.58s-.74-1.58-1.25-1.41" fill="none" stroke="#000" stroke-linecap="round" stroke-miterlimit="10" stroke-width=".29"/><path d="m370,806.46s-.81.33-.98-.17" fill="none" stroke="#000" stroke-linecap="round" stroke-miterlimit="10" stroke-width=".29"/><path d="m357.08,812.16s-3.09-.98-3.53-2.32" fill="none" stroke="#000" stroke-linecap="round" stroke-miterlimit="10" stroke-width=".29"/><path d="m354.18,810.66s-1.97,1.4-2.25.74" fill="none" stroke="#000" stroke-linecap="round" stroke-miterlimit="10" stroke-width=".29"/><path d="m320.84,767.16s3.15.1,3.02,1.2" fill="none" stroke="#000" stroke-linecap="round" stroke-miterlimit="10" stroke-width=".29"/><path d="m350.54,790.47s11.12,3.56,9.46,10.58" fill="none" stroke="#000" stroke-linecap="round" stroke-miterlimit="10" stroke-width=".29"/><path d="m351.73,783.61c.73-.5,4.16-2.72,7.76-1.56.7.23,2.14.69,2.86,2.02,1.21,2.23-.59,4.98-.84,5.37-1.91,2.93-5.42,3.34-6.03,3.4" fill="none" stroke="#000" stroke-linecap="round" stroke-miterlimit="10" stroke-width=".29"/><path d="m336.2,764.06s4.11,1.07,2.94,2.17" fill="none" stroke="#000" stroke-linecap="round" stroke-miterlimit="10" stroke-width=".29"/><path d="m338.76,765.09s8.11-3.04,6.59,8.01" fill="none" stroke="#000" stroke-linecap="round" stroke-miterlimit="10" stroke-width=".29"/><path d="m353.44,767.49s3.52.3,3.69.58" fill="none" stroke="#000" stroke-linecap="round" stroke-miterlimit="10" stroke-width=".29"/><path d="m359.68,797.23s.22,1.58,5.65-1.87" fill="none" stroke="#000" stroke-linecap="round" stroke-miterlimit="10" stroke-width=".29"/><path d="m373.09,785.18s-1.26,1.42-1.8,1.18" fill="none" stroke="#000" stroke-linecap="round" stroke-miterlimit="10" stroke-width=".29"/><path d="m374.69,793.36s-.61.73-1.38.1" fill="none" stroke="#000" stroke-linecap="round" stroke-miterlimit="10" stroke-width=".29"/><path d="m333.69,801.95c.41.13,1.66.48,3.13,0,1.48-.49,2.28-1.52,2.52-1.87" fill="none" stroke="#000" stroke-linecap="round" stroke-miterlimit="10" stroke-width=".29"/><path d="m339.18,799.47s.08.9.7.79" fill="none" stroke="#000" stroke-linecap="round" stroke-miterlimit="10" stroke-width=".29"/><path d="m333.49,801.47s.47.76-.09,1.05" fill="none" stroke="#000" stroke-linecap="round" stroke-miterlimit="10" stroke-width=".29"/><path d="m315.24,771.57c1.11,0,1.11-1.72,0-1.72s-1.11,1.72,0,1.72h0Z" fill="#fff" stroke-width="0"/><path d="m313.67,773.04c-1.39,1.4-2.36,3.3-2.66,5.34.01-2.07.71-4.17,2-5.9.14-.19.41-.23.6-.09.21.15.23.47.05.65h0Z" fill="#fff" stroke-width="0"/><path d="m307.87,809.24c-.78,2.21.74,4.8,3.08,5.27-2.58-.22-4.5-2.93-3.92-5.5.13-.58,1.01-.35.83.22h0Z" fill="#fff" stroke-width="0"/><path d="m328.38,821.18c1.69.39,3.51.29,5.2-.3-1.61.77-3.47,1.08-5.3.87-.16-.02-.27-.16-.25-.32.02-.17.18-.29.35-.25h0Z" fill="#fff" stroke-width="0"/><path d="m326.14,784.93h0c1.92,0,3.48,1.56,3.48,3.48v8.01h-6.95v-8.01c0-1.92,1.56-3.48,3.48-3.48Z" transform="translate(-231.71 142.34) rotate(-18.29)" fill="#fff"/><g clip-path="url(#clippath-1)"><ellipse cx="325.39" cy="793.19" rx="2.54" ry="5.08" transform="translate(-232.54 142.23) rotate(-18.29)" stroke-width="0"/><path d="m325.74,792.16l.3.05c.12.02.2-.1.15-.21l-.14-.27s-.02-.09,0-.13l.14-.27c.05-.1-.04-.23-.15-.21l-.3.05s-.09,0-.13-.04l-.21-.22c-.08-.08-.23-.04-.24.08l-.04.3s-.04.09-.08.11l-.27.14c-.11.05-.1.2,0,.26l.27.13s.07.06.08.11l.05.3c.02.12.16.16.24.08l.21-.22s.08-.05.13-.04Z" fill="#fff" stroke-width="0"/><path d="m324.63,791.25l.12.02s.08-.04.06-.08l-.06-.11s0-.04,0-.05l.06-.11s-.01-.09-.06-.08l-.12.02s-.04,0-.05-.02l-.09-.09s-.09-.01-.1.03l-.02.12s-.01.04-.03.04l-.11.06s-.04.08,0,.1l.11.05s.03.02.03.04l.02.12s.07.07.1.03l.09-.09s.03-.02.05-.02Z" fill="#fff" stroke-width="0"/><path d="m324.65,792.73c.22,0,.22-.35,0-.35s-.22.35,0,.35h0Z" fill="#fff" stroke-width="0"/></g><path d="m326.14,784.93h0c1.92,0,3.48,1.56,3.48,3.48v8.01h-6.95v-8.01c0-1.92,1.56-3.48,3.48-3.48Z" transform="translate(-231.71 142.34) rotate(-18.29)" fill="none" stroke="#000" stroke-linecap="round" stroke-miterlimit="10" stroke-width=".38"/><path d="m322.59,798.23s4.53-4.31,10.93-3.61" fill="#f5a5d6" stroke="#000" stroke-linecap="round" stroke-miterlimit="10" stroke-width=".29"/><path d="m338.54,780.83h0c1.92,0,3.48,1.56,3.48,3.48v8.01h-6.95v-8.01c0-1.92,1.56-3.48,3.48-3.48Z" transform="translate(-229.79 146.03) rotate(-18.29)" fill="#fff"/><g clip-path="url(#clippath-2)"><ellipse cx="337.79" cy="789.1" rx="2.54" ry="5.08" transform="translate(-230.63 145.92) rotate(-18.29)" stroke-width="0"/><path d="m338.13,788.06l.3.05c.12.02.2-.1.15-.21l-.14-.27s-.02-.09,0-.13l.14-.27c.05-.1-.04-.23-.15-.21l-.3.05s-.09,0-.13-.04l-.21-.22c-.08-.08-.23-.04-.24.08l-.04.3s-.04.09-.08.11l-.27.14c-.11.05-.1.2,0,.26l.27.13s.07.06.08.11l.05.3c.02.12.16.16.24.08l.21-.22s.08-.05.13-.04Z" fill="#fff" stroke-width="0"/><path d="m337.02,787.15l.12.02s.08-.04.06-.08l-.06-.11s0-.04,0-.05l.06-.11s-.01-.09-.06-.08l-.12.02s-.04,0-.05-.02l-.09-.09s-.09-.01-.1.03l-.02.12s-.01.04-.03.04l-.11.06s-.04.08,0,.1l.11.05s.03.02.03.04l.02.12s.07.07.1.03l.09-.09s.03-.02.05-.02Z" fill="#fff" stroke-width="0"/><path d="m337.04,788.64c.22,0,.22-.35,0-.35s-.22.35,0,.35h0Z" fill="#fff" stroke-width="0"/></g><path d="m338.54,780.83h0c1.92,0,3.48,1.56,3.48,3.48v8.01h-6.95v-8.01c0-1.92,1.56-3.48,3.48-3.48Z" transform="translate(-229.79 146.03) rotate(-18.29)" fill="none" stroke="#000" stroke-linecap="round" stroke-miterlimit="10" stroke-width=".38"/><path d="m334.98,794.13s4.53-4.31,10.93-3.61" fill="#f5a5d6" stroke="#000" stroke-linecap="round" stroke-miterlimit="10" stroke-width=".29"/><path d="m346.88,762.43l.79.13c.31.05.54-.27.39-.55l-.38-.71c-.06-.11-.06-.24,0-.35l.37-.71c.14-.28-.09-.6-.4-.54l-.79.14c-.12.02-.25-.02-.33-.11l-.56-.57c-.22-.22-.6-.1-.64.21l-.11.79c-.02.12-.09.23-.2.28l-.72.36c-.28.14-.28.54,0,.68l.72.35c.11.05.19.16.21.28l.12.79c.05.31.43.43.64.21l.56-.58c.09-.09.21-.13.33-.11Z" fill="#fff" stroke="#000" stroke-miterlimit="10" stroke-width=".29"/><path d="m368.1,810.7l1.58.26c.62.1,1.08-.55.79-1.1l-.75-1.42c-.12-.22-.12-.48,0-.7l.74-1.42c.29-.55-.18-1.2-.8-1.09l-1.58.28c-.24.04-.49-.04-.67-.21l-1.13-1.14c-.44-.44-1.2-.19-1.28.42l-.22,1.59c-.03.25-.19.46-.41.57l-1.44.72c-.56.28-.55,1.08,0,1.35l1.44.7c.22.11.38.32.41.56l.24,1.59c.09.62.85.86,1.29.41l1.11-1.15c.17-.18.42-.26.67-.22Z" fill="#fff" stroke="#000" stroke-miterlimit="10" stroke-width=".29"/><path d="m303.12,806.72l.69.11c.27.04.47-.24.34-.48l-.33-.62c-.05-.1-.05-.21,0-.3l.32-.62c.13-.24-.08-.52-.35-.47l-.69.12c-.11.02-.21-.02-.29-.09l-.49-.5c-.19-.19-.52-.08-.56.18l-.1.69c-.01.11-.08.2-.18.25l-.62.31c-.24.12-.24.47,0,.59l.63.31c.1.05.16.14.18.25l.1.69c.04.27.37.37.56.18l.48-.5c.07-.08.18-.11.29-.1Z" fill="#fff" stroke="#000" stroke-miterlimit="10" stroke-width=".29"/><path d="m310.3,826.07l.58-.4c.22-.15.17-.5-.08-.58l-.66-.22c-.1-.03-.18-.12-.21-.22l-.2-.67c-.08-.26-.42-.32-.58-.1l-.41.56c-.06.09-.17.14-.27.13l-.7-.02c-.27,0-.43.3-.27.52l.41.56c.06.09.08.2.04.3l-.23.66c-.09.26.15.5.41.42l.66-.22c.1-.03.21-.01.3.05l.55.42c.22.17.53.01.53-.26v-.7c0-.11.05-.21.14-.27Z" fill="#fff" stroke="#000" stroke-miterlimit="10" stroke-width=".29"/><path d="m309.08,770.4l.28-.19c.11-.07.08-.24-.04-.28l-.32-.11s-.09-.06-.1-.11l-.1-.33c-.04-.13-.2-.16-.28-.05l-.2.27s-.08.07-.13.07h-.34c-.13-.01-.21.14-.13.24l.2.28s.04.1.02.15l-.11.32c-.04.12.07.25.2.21l.32-.1s.1,0,.15.03l.27.21c.1.08.26,0,.26-.13v-.34c0-.05.03-.1.07-.13Z" fill="#fff" stroke="#000" stroke-miterlimit="10" stroke-width=".22"/><path d="m255.56,864.32l13.85,41.91,10.1-3.34c-2.07-3.78-4.1-8.47-5.82-13.67-4.63-14-5.27-26.38-1.42-27.66s10.72,9.05,15.34,23.05c1.72,5.2,2.89,10.18,3.48,14.44l6.54-2.16c-2.07-3.78-4.1-8.47-5.82-13.67-4.63-14-5.27-26.38-1.42-27.66s10.72,9.05,15.34,23.05c1.72,5.2,2.89,10.18,3.48,14.44l10.63-3.51-13.85-41.91c-2.81-8.49-11.96-13.09-20.45-10.29l-19.71,6.51c-8.49,2.81-13.09,11.96-10.29,20.45Z" stroke-width="0"/><path d="m317.18,844.11c-.91-2.75-3.86-4.24-6.6-3.34s.55,10.86,3.29,9.95,4.22-3.87,3.31-6.62Z" stroke-width="0"/><path d="m390.65,819.81l13.81,41.77,15.27-5.05c-.26-.73-.52-1.47-.77-2.22-4.63-14-5.27-26.38-1.42-27.66s10.72,9.05,15.34,23.05c.25.75.48,1.5.71,2.24l13.43-4.44-13.81-41.77c-2.83-8.56-12.07-13.21-20.63-10.38l-11.56,3.82c-8.56,2.83-13.21,12.07-10.38,20.63Zm24.42-1.08c-3.63,1.2-7.54-.77-8.74-4.4s.77-7.54,4.4-8.74,7.54.77,8.74,4.4-.77,7.54-4.4,8.74Z" stroke-width="0"/><path d="m356.64,840.97c.2.58.4,1.17.6,1.76,3.59,10.85,4.89,20.17,2.91,20.82s-6.49-7.61-10.07-18.45c-.2-.6-.39-1.19-.57-1.77l-6.2,2.05c-5.93,1.96-9.16,8.36-7.19,14.3l7.46,22.57,3.86-1.27c-.44-1.19-.87-2.42-1.29-3.7-3.59-10.85-4.89-20.17-2.91-20.82s6.49,7.61,10.07,18.45c.42,1.27.81,2.52,1.16,3.74l4.99-1.65c5.93-1.96,9.16-8.36,7.19-14.3l-7.46-22.57-2.54.84Z" stroke-width="0"/><path d="m313.48,853.78c5.18-1.71,10.55,1.19,16.1,8.71,1.46,2.35,2.59,4.73,3.39,7.14l.18.55c1.92,5.82,2.16,10.89.71,15.24l-8.75,2.89c-.25.08-.42,0-.5-.25l-11.19-33.84.05-.43Z" stroke-width="0"/><path d="m375.93,819.13l4.65,14.06-6.94,2.29c-4.4,1.45-6.79,6.2-5.33,10.6l5.79,17.51c1.45,4.4,6.2,6.79,10.6,5.33l13.37-4.42-13.58-41.07c-1.17-3.55-5-5.48-8.55-4.3h0Zm12.58,42.35l-7.45,2.46-1.92-6.07c-4.08-12.34-3.43-16.02-1.36-16.71s5.05,2.67,8.87,14.23c.5,1.51,1.86,6.09,1.86,6.09Z" stroke-width="0"/><path d="m257.4,861.68l13.85,41.91,10.1-3.34c-2.07-3.78-4.1-8.47-5.82-13.67-4.63-14-5.27-26.38-1.42-27.66s10.72,9.05,15.34,23.05c1.72,5.2,2.89,10.18,3.48,14.44l6.54-2.16c-2.07-3.78-4.1-8.47-5.82-13.67-4.63-14-5.27-26.38-1.42-27.66s10.72,9.05,15.34,23.05c1.72,5.2,2.89,10.18,3.48,14.44l10.63-3.51-13.85-41.91c-2.81-8.49-11.96-13.09-20.45-10.29l-19.71,6.51c-8.49,2.81-13.09,11.96-10.29,20.45Z" fill="#f5a5d6" stroke="#000" stroke-miterlimit="10" stroke-width=".64"/><path d="m319.02,841.47c-.91-2.75-3.86-4.24-6.6-3.34s.55,10.86,3.29,9.95,4.22-3.87,3.31-6.62Z" fill="#f5a5d6" stroke="#000" stroke-miterlimit="10" stroke-width=".64"/><path d="m392.49,817.16l13.81,41.77,15.27-5.05c-.26-.73-.52-1.47-.77-2.22-4.63-14-5.27-26.38-1.42-27.66s10.72,9.05,15.34,23.05c.25.75.48,1.5.71,2.24l13.43-4.44-13.81-41.77c-2.83-8.56-12.07-13.21-20.63-10.38l-11.56,3.82c-8.56,2.83-13.21,12.07-10.38,20.63Zm24.42-1.08c-3.63,1.2-7.54-.77-8.74-4.4-1.2-3.63.77-7.54,4.4-8.74s7.54.77,8.74,4.4-.77,7.54-4.4,8.74Z" fill="#f5a5d6" stroke="#000" stroke-miterlimit="10" stroke-width=".64"/><path d="m358.48,838.32c.2.58.4,1.17.6,1.76,3.59,10.85,4.89,20.17,2.91,20.82s-6.49-7.61-10.07-18.45c-.2-.6-.39-1.19-.57-1.77l-6.2,2.05c-5.93,1.96-9.16,8.36-7.19,14.3l7.46,22.57,3.86-1.27c-.44-1.19-.87-2.42-1.29-3.7-3.59-10.85-4.89-20.17-2.91-20.82s6.49,7.61,10.07,18.45c.42,1.27.81,2.52,1.16,3.74l4.99-1.65c5.93-1.96,9.16-8.36,7.19-14.3l-7.46-22.57-2.54.84Z" fill="#f5a5d6" stroke="#000" stroke-miterlimit="10" stroke-width=".64"/><path d="m315.32,851.13c5.18-1.71,10.55,1.19,16.1,8.71,1.46,2.35,2.59,4.73,3.39,7.14l.18.55c1.92,5.82,2.16,10.89.71,15.24l-8.75,2.89c-.25.08-.42,0-.5-.25l-11.19-33.84.05-.43Z" fill="#f5a5d6" stroke="#000" stroke-miterlimit="10" stroke-width=".64"/><path d="m377.77,816.48l4.65,14.06-6.94,2.29c-4.4,1.45-6.79,6.2-5.33,10.6l5.79,17.51c1.45,4.4,6.2,6.79,10.6,5.33l13.37-4.42-13.58-41.07c-1.17-3.55-5-5.48-8.55-4.3h0Zm12.58,42.35l-7.45,2.46-1.92-6.07c-4.08-12.34-3.43-16.02-1.36-16.71s5.05,2.67,8.87,14.23c.5,1.51,1.86,6.09,1.86,6.09Z" fill="#f5a5d6" stroke="#000" stroke-miterlimit="10" stroke-width=".64"/><polygon points="269.41 906.23 271.25 903.59 281.35 900.25 279.51 902.89 269.41 906.23" stroke-width="0"/><polygon points="291.1 899.06 292.94 896.41 299.48 894.25 297.64 896.9 291.1 899.06" stroke-width="0"/><polygon points="309.23 893.07 311.07 890.42 321.7 886.91 319.86 889.55 309.23 893.07" stroke-width="0"/><polygon points="324.62 888.05 326.96 885.66 335.71 882.77 333.87 885.41 324.62 888.05" stroke-width="0"/><polygon points="343.58 882.25 345.42 879.6 349.27 878.33 347.43 880.98 343.58 882.25" stroke-width="0"/><polygon points="356.64 840.97 358.48 838.32 359.65 841.85 357.81 844.49 356.64 840.97" stroke-width="0"/><polygon points="377.77 816.48 375.93 819.13 377.5 823.86 379.95 823.05 377.77 816.48" stroke-width="0"/><polygon points="421.98 854.09 419.72 856.54 404.45 861.58 406.29 858.94 421.98 854.09" stroke-width="0"/><polygon points="433.59 851.95 435.43 849.31 448.86 844.87 447.02 847.51 433.59 851.95" stroke-width="0"/><polygon points="310.06 841.13 311.46 838.58 311.59 842.2 310.53 842.55 310.06 841.13" stroke-width="0"/><polygon points="313.48 853.78 315.32 851.13 316.39 854.95 314.08 856.17 313.48 853.78" stroke-width="0"/><polygon points="399.91 861.86 398.07 864.5 395.14 865.47 395.44 863.33 399.91 861.86" stroke-width="0"/><path d="m313.99,840.49c.89-.29.43-1.67-.46-1.38s-.43,1.67.46,1.38h0Z" fill="#fff" stroke-width="0"/><path d="m315.63,841.44c.1.09.19.18.28.28.04.04.02.03-.04-.04.02.03.05.05.07.08.04.05.09.11.13.17.07.1.14.2.21.3.05.09.16.22.18.32-.05-.1-.05-.11-.02-.03.01.02.02.05.03.07.02.06.05.11.07.17.04.11.09.23.12.35s.06.24.09.36c.02.08.01.07,0-.04,0,.03.01.07.02.1.01.07.02.14.03.21.04.38.36.73.76.69.37-.04.73-.36.69-.76-.13-1.27-.71-2.44-1.65-3.31-.28-.26-.78-.24-1.02.06s-.23.75.06,1.02h0Z" fill="#fff" stroke-width="0"/><path d="m318.7,853.84c.89-.29.43-1.67-.46-1.38s-.43,1.67.46,1.38h0Z" fill="#fff" stroke-width="0"/><path d="m322.46,856.11c3.61,2.16,6.39,5.56,7.84,9.51.32.87,1.7.42,1.38-.46-1.58-4.33-4.61-7.98-8.56-10.35-.8-.48-1.45.82-.65,1.3h0Z" fill="#fff" stroke-width="0"/><path d="m289.29,838c.89-.29.43-1.67-.46-1.38s-.43,1.67.46,1.38h0Z" fill="#fff" stroke-width="0"/><path d="m292,837.77c4.98.12,9.68,2.98,12.16,7.27.47.81,1.67,0,1.21-.81-2.75-4.75-7.98-7.78-13.44-7.92-.93-.02-.85,1.43.07,1.45h0Z" fill="#fff" stroke-width="0"/><path d="m302.45,862.04c3.87,6.48,6.72,13.51,8.47,20.84.22.91,1.59.45,1.38-.46-1.78-7.46-4.71-14.61-8.64-21.19-.48-.8-1.69,0-1.21.81h0Z" fill="#fff" stroke-width="0"/><path d="m277.04,858.02c1.61,1.15,2.97,2.58,4.01,4.26.21.33.69.41,1.01.2.34-.22.41-.67.2-1.01-1.1-1.78-2.55-3.34-4.25-4.55-.32-.23-.75-.25-1.02.06-.24.27-.26.8.06,1.02h0Z" fill="#fff" stroke-width="0"/><path d="m277.97,899.87c.89-.29.43-1.67-.46-1.38s-.43,1.67.46,1.38h0Z" fill="#fff" stroke-width="0"/><path d="m342.02,845.81c-2.26,2.53-3.48,5.88-3.4,9.26.02.94,1.47.86,1.45-.07-.07-3.01,1.04-5.98,3.04-8.23.62-.7-.46-1.66-1.09-.96h0Z" fill="#fff" stroke-width="0"/><path d="m345.06,845.82c.89-.29.43-1.67-.46-1.38s-.43,1.67.46,1.38h0Z" fill="#fff" stroke-width="0"/><path d="m358.23,873.73c.89-.29.43-1.67-.46-1.38s-.43,1.67.46,1.38h0Z" fill="#fff" stroke-width="0"/><path d="m375.39,835.79c.89-.29.43-1.67-.46-1.38s-.43,1.67.46,1.38h0Z" fill="#fff" stroke-width="0"/><path d="m373.08,836.42c-1.18,1.8-1.71,4.03-1.49,6.17.04.39.35.71.76.69.38-.02.73-.37.69-.76-.2-1.94.25-3.8,1.34-5.45.22-.33,0-.81-.32-.97-.38-.19-.76,0-.97.32h0Z" fill="#fff" stroke-width="0"/><path d="m399.57,800.78c-3.51,4.03-5.44,9.27-5.4,14.61,0,.94,1.45.86,1.45-.07-.03-4.96,1.79-9.84,5.04-13.58.61-.7-.47-1.67-1.09-.96h0Z" fill="#fff" stroke-width="0"/><path d="m402.82,800.57c.89-.29.43-1.67-.46-1.38s-.43,1.67.46,1.38h0Z" fill="#fff" stroke-width="0"/><path d="m426.13,826.42c4.4,4.82,7.49,10.72,9.02,17.07.22.91,1.59.45,1.38-.46-1.59-6.61-4.86-12.69-9.43-17.7-.63-.69-1.58.4-.96,1.09h0Z" fill="#fff" stroke-width="0"/><path d="m437.11,846.66c.89-.29.43-1.67-.46-1.38s-.43,1.67.46,1.38h0Z" fill="#fff" stroke-width="0"/><path d="m590.56,325.4l-7.32,10.48-1.47,2.1c-1.44,1.68-3.34,2.99-5.59,3.73l-101.64,33.6c-6.6,2.18-13.73-1.4-15.91-8l-72.76-220.08c-1.16-3.51-.69-7.17.99-10.15,0,0,.01-.02.02-.04.08-.15.16-.3.25-.45,1.92-3.5,4.22-6.33,6.52-8.6.21,1.06.43,2.12.65,3.18l101.22-33.46c6.61-2.18,13.73,1.4,15.91,8l72.76,220.08c.5,1.53.7,3.08.62,4.59l5.74-4.99Z" fill="url(#Dégradé_sans_nom_23)" stroke="#000" stroke-miterlimit="10"/><rect x="425.36" y="99.5" width="132.24" height="256.98" rx="12.59" ry="12.59" transform="translate(-46.73 165.8) rotate(-18.29)" fill="url(#Dégradé_sans_nom_23-2)" stroke="#000" stroke-miterlimit="10"/><rect x="434.15" y="116.59" width="114.65" height="222.81" rx="10.92" ry="10.92" transform="translate(-46.73 165.8) rotate(-18.29)" fill="url(#Dégradé_sans_nom_26)" stroke="#000" stroke-miterlimit="10"/><path d="m708.72,1128.49c-1.38,2.47-2.99,4.79-4.84,6.93l4.84-6.93Z" fill="url(#Dégradé_sans_nom_19-3)" stroke-width="0"/><path d="m899.43,655.34l4.34-1.26c1.69-.49,2.08-2.7.67-3.74l-3.64-2.68c-.56-.41-.88-1.08-.86-1.77l.14-4.51c.06-1.76-1.93-2.81-3.35-1.79l-3.67,2.63c-.57.41-1.3.51-1.95.27l-4.25-1.53c-1.65-.6-3.27.96-2.74,2.64l1.37,4.3c.21.66.08,1.39-.35,1.94l-2.77,3.57c-1.08,1.39-.1,3.41,1.66,3.42l4.52.03c.7,0,1.35.35,1.74.93l2.54,3.74c.99,1.45,3.21,1.14,3.76-.52l1.42-4.29c.22-.66.75-1.17,1.42-1.37Z" fill="#fff" stroke="#000" stroke-miterlimit="10" stroke-width="1.86"/><path d="m424.76,590.67s-14.77-59.19,52.83-69.89c0,0,48.15-109.92,124.02-68.09,0,0,59.33-33.56,100.67,12.16,0,0,56.9-41.83,89.97,32.1,0,0,45.23-15.08,63.23,61.77,0,0,66.14,21.4,32.1,78.3,0,0,10.7,20.43-1.46,32.59,0,0,21.4,32.1-6.81,53.5,0,0-.49,23.83-20.91,28.69,0,0,7.78,38.42-34.53,42.31,0,0-46.2,54.47-90.95,8.75,0,0-33.56,23.83-63.23,0,0,0-32.59,27.72-77.82,9.73,0,0-49.12,20.91-76.84-9.73,0,0-28.21,16.54-43.29-15.56,0,0-27.24,2.92-28.21-35.99,0,0-60.79-32.59-25.78-85.11,0,0-45.36-45.03,6.99-75.53Z" fill="url(#Dégradé_sans_nom_4-2)"/><g clip-path="url(#clippath-3)"><path d="m414.01,665.92c-6.52,12.27-8.83,26.39-6.77,40.11,1.87,12.49,7.8,24.22,16.37,33.45,4.66,5.01,10.16,9.28,16.17,12.54,3.15,1.71,5.97-3.1,2.81-4.81-9.91-5.38-18.09-13.57-23.53-23.44-5.87-10.66-8.05-22.98-6.58-35.03.85-6.97,3.04-13.81,6.34-20,1.68-3.16-3.12-5.98-4.81-2.81h0Z" fill="#fbea77" stroke-width="0"/><path d="m440.61,752.61c2.89,13.54,6.86,28.88,20.18,35.84,3.35,1.75,7.03,2.75,10.82,2.76,3.58,0,3.59-5.57,0-5.57-7.08,0-13.37-4.64-17.23-10.34-4.85-7.16-6.63-15.84-8.4-24.16-.31-1.47-2.04-2.33-3.43-1.95-1.52.42-2.26,1.95-1.95,3.43h0Z" fill="#fbea77" stroke-width="0"/><path d="m470.18,791.07c6.8,11.08,18.79,18.19,31.63,19.56,3.68.39,7.36.2,11-.43,1.48-.26,2.32-2.08,1.95-3.43-.43-1.57-1.94-2.2-3.43-1.95-13.85,2.39-28.93-4.5-36.34-16.57-1.87-3.05-6.69-.26-4.81,2.81h0Z" fill="#fbea77" stroke-width="0"/><path d="m418.78,663.94c-2.54-1.99-4.77-4.45-6.78-6.96-.1-.12-.71-.91-.36-.45-.2-.26-.39-.51-.58-.77-.48-.65-.94-1.3-1.39-1.97-.89-1.33-1.72-2.7-2.49-4.11-1.77-3.27-2.97-6.26-3.91-9.96-2.02-7.95-1.47-16.54,1.48-24.33,2.39-6.31,6.32-11.69,11.28-16.3,1.09-1.02,2.23-1.98,3.4-2.9.34-.26-.53.4,0,0,.13-.1.26-.2.39-.29.25-.19.5-.37.75-.55.46-.33.92-.65,1.38-.96,1.09-.73,2.21-1.43,3.37-2.03,3.18-1.65.37-6.46-2.81-4.81s-6.2,3.91-8.94,6.27c-5.36,4.62-9.9,10.37-12.83,16.82-3.86,8.49-5.12,17.89-3.57,27.09,1.24,7.4,4.45,14.48,8.85,20.54,2.53,3.48,5.41,6.93,8.81,9.6,1.18.93,2.79,1.15,3.94,0,.97-.97,1.19-3,0-3.94h0Z" fill="#fbea77" stroke-width="0"/><path d="m426.72,589.96c-1.03-11.5.97-22.96,6.07-33.43,3.79-7.78,9.14-14.69,15.72-20.3,2.66-2.27,5.53-4.28,8.53-6.07,1.39-.82,2.8-1.6,4.25-2.32.65-.33,1.31-.65,1.98-.95.34-.16.68-.31,1.03-.47.13-.06,1.01-.44.59-.26,3.99-1.68,8.15-2.98,12.39-3.83,1.48-.29,2.32-2.05,1.95-3.43-.42-1.54-1.95-2.24-3.43-1.95-10.52,2.09-20.51,6.89-28.94,13.47-13.56,10.59-22.63,26.41-25.12,43.42-.78,5.34-1.07,10.74-.58,16.12.13,1.5,1.18,2.78,2.78,2.78,1.4,0,2.92-1.28,2.78-2.78h0Z" fill="#fbea77" stroke-width="0"/></g><path d="m424.76,590.67s-14.77-59.19,52.83-69.89c0,0,48.15-109.92,124.02-68.09,0,0,59.33-33.56,100.67,12.16,0,0,56.9-41.83,89.97,32.1,0,0,45.23-15.08,63.23,61.77,0,0,66.14,21.4,32.1,78.3,0,0,10.7,20.43-1.46,32.59,0,0,21.4,32.1-6.81,53.5,0,0-.49,23.83-20.91,28.69,0,0,7.78,38.42-34.53,42.31,0,0-46.2,54.47-90.95,8.75,0,0-33.56,23.83-63.23,0,0,0-32.59,27.72-77.82,9.73,0,0-49.12,20.91-76.84-9.73,0,0-28.21,16.54-43.29-15.56,0,0-27.24,2.92-28.21-35.99,0,0-60.79-32.59-25.78-85.11,0,0-45.36-45.03,6.99-75.53Z" fill="none" stroke="#000" stroke-miterlimit="10" stroke-width="1.86"/><path d="m792.26,496.94c2.71,5.94,5.41,12.69,7.86,20.21,2.21,6.81,3.88,13.22,5.14,19.09,0,0,14.47,80.59,3.59,86.51" fill="none" stroke="#000" stroke-linecap="round" stroke-miterlimit="10" stroke-width="1.86"/><path d="m477.59,520.77s13.46-5.1,21.33,0" fill="none" stroke="#000" stroke-miterlimit="10" stroke-width="1.86"/><path d="m424.76,590.67c.62,2.71,1.63,5.97,3.32,9.47.97,2.02,2.01,3.79,3.03,5.31" fill="none" stroke="#000" stroke-linecap="round" stroke-miterlimit="10" stroke-width="1.86"/><path d="m496.13,746.32s13.8,13.27,37.69,11.15" fill="none" stroke="#000" stroke-linecap="round" stroke-miterlimit="10" stroke-width="1.86"/><path d="m519.93,757s4.09,12.7,18.68,12.43" fill="none" stroke="#000" stroke-linecap="round" stroke-miterlimit="10" stroke-width="1.86"/><path d="m855.48,558.71s-20.61-6.54-31.3,0" fill="none" stroke="#000" stroke-linecap="round" stroke-miterlimit="10" stroke-width="1.86"/><path d="m887.58,637.01s-13.05,14.45-25.47,11.69" fill="none" stroke="#000" stroke-linecap="round" stroke-miterlimit="10" stroke-width="1.86"/><path d="m858.4,751.79s-1.34-11.23-4.83-11.23" fill="none" stroke="#000" stroke-linecap="round" stroke-miterlimit="10" stroke-width="1.86"/><path d="m823.87,794.1s-5.65.36-5.65-3.06" fill="none" stroke="#000" stroke-linecap="round" stroke-miterlimit="10" stroke-width="1.86"/><path d="m732.92,802.86s-16.97-12.31-16.97-21.46" fill="none" stroke="#000" stroke-linecap="round" stroke-miterlimit="10" stroke-width="1.86"/><path d="m718.09,787.79s-14.96,4.57-15.32,0" fill="none" stroke="#000" stroke-linecap="round" stroke-miterlimit="10" stroke-width="1.86"/><path d="m601.61,452.69s19.18,7.02,16.16,13.49" fill="none" stroke="#000" stroke-linecap="round" stroke-miterlimit="10" stroke-width="1.86"/><path d="m736.77,656.3s61.08,44.48,36.65,84.27" fill="none" stroke="#000" stroke-linecap="round" stroke-miterlimit="10" stroke-width="1.86"/><path d="m757.98,616.55c5.52-1.57,31.09-8.25,50.86,6.21,3.84,2.8,11.72,8.57,13.47,18.25,2.91,16.14-13.72,29.41-16.08,31.29-17.69,14.11-40.1,9.52-43.98,8.66" fill="none" stroke="#000" stroke-linecap="round" stroke-miterlimit="10" stroke-width="1.86"/><path d="m702.28,464.84s23.08,14.92,13.67,19.29" fill="none" stroke="#000" stroke-linecap="round" stroke-miterlimit="10" stroke-width="1.86"/><path d="m715.95,476.35s56.03-2.19,24.24,62.63" fill="none" stroke="#000" stroke-linecap="round" stroke-miterlimit="10" stroke-width="1.86"/><path d="m801.3,520.96s21.03,9.01,21.49,11.09" fill="none" stroke="#000" stroke-linecap="round" stroke-miterlimit="10" stroke-width="1.86"/><path d="m779.19,716.41s-1.87,10.17,38.52,0" fill="none" stroke="#000" stroke-linecap="round" stroke-miterlimit="10" stroke-width="1.86"/><path d="m886.12,669.6s-10.61,6.15-13.47,3.57" fill="none" stroke="#000" stroke-linecap="round" stroke-miterlimit="10" stroke-width="1.86"/><path d="m879.32,723.1s-5.23,3.24-8.66-2.17" fill="none" stroke="#000" stroke-linecap="round" stroke-miterlimit="10" stroke-width="1.86"/><path d="m663.73,680.76c-4,2.95-16.51,23.39-34.62,23.38-18.07-.01-30.55-20.43-34.55-23.38h69.18Z" fill="#fff" stroke="#000" stroke-linecap="round" stroke-linejoin="round" stroke-width="1.67"/><path d="m559.97,468.7c2.91,0,5.7-2.56,5.57-5.57s-2.45-5.57-5.57-5.57c-2.91,0-5.7,2.56-5.57,5.57s2.45,5.57,5.57,5.57h0Z" fill="#fff" stroke-width="0"/><path d="m545.56,474.27c-11.41,5.77-21.18,15.47-27.18,27.44,4.29-12.69,12.83-24.21,24.31-32.21,1.26-.89,3.02-.59,3.9.69.97,1.37.47,3.34-1.03,4.09h0Z" fill="#fff" stroke-width="0"/><path d="m436.34,684.93c-4.19,5.61-6.01,13.3-4.57,20.56,1.43,7.27,6.12,14.09,12.81,18.12-7.12-3.21-12.96-9.6-15.5-17.41-2.53-7.82-1.69-16.81,2.58-24.3.75-1.36,2.48-1.84,3.82-1.07,1.45.81,1.86,2.77.85,4.09h0Z" fill="#fff" stroke-width="0"/><path d="m538.14,799.99c9.59,5.8,21.01,8.93,32.57,8.72-11.47,1.45-23.51-.4-34.31-5.44-2.31-1.16-.51-4.54,1.74-3.28h0Z" fill="#fff" stroke-width="0"/><path d="m670.95,570.76h0c12.42,0,22.51,10.09,22.51,22.51v51.83h-45.02v-51.83c0-12.42,10.09-22.51,22.51-22.51Z" fill="#fff"/><g clip-path="url(#clippath-4)"><ellipse cx="671.75" cy="615.94" rx="16.44" ry="32.88" stroke-width="0"/><path d="m673.9,621l1.74.92c.68.36,1.47-.22,1.34-.97l-.33-1.94c-.05-.3.05-.61.27-.82l1.41-1.37c.55-.53.25-1.46-.51-1.57l-1.95-.28c-.3-.04-.56-.23-.7-.51l-.87-1.76c-.34-.69-1.32-.69-1.66,0l-.87,1.76c-.13.27-.39.46-.7.51l-1.95.28c-.76.11-1.06,1.04-.51,1.57l1.41,1.37c.22.21.32.52.27.82l-.33,1.94c-.13.75.66,1.33,1.34.97l1.74-.92c.27-.14.59-.14.86,0Z" fill="#fff" stroke-width="0"/><path d="m668.93,613.12l.71.37c.28.14.6-.09.55-.4l-.14-.79c-.02-.12.02-.25.11-.33l.57-.56c.22-.22.1-.6-.21-.64l-.79-.12c-.12-.02-.23-.09-.28-.21l-.35-.72c-.14-.28-.54-.28-.67,0l-.35.72c-.05.11-.16.19-.28.21l-.79.12c-.31.04-.43.42-.21.64l.57.56c.09.09.13.21.11.33l-.14.79c-.05.31.27.54.55.4l.71-.37c.11-.06.24-.06.35,0Z" fill="#fff" stroke-width="0"/><path d="m666.39,622.35c1.45,0,1.46-2.26,0-2.26s-1.46,2.26,0,2.26h0Z" fill="#fff" stroke-width="0"/></g><path d="m670.95,570.76h0c12.42,0,22.51,10.09,22.51,22.51v51.83h-45.02v-51.83c0-12.42,10.09-22.51,22.51-22.51Z" fill="none" stroke="#000" stroke-linecap="round" stroke-miterlimit="10" stroke-width="2.44"/><path d="m586.42,570.76h0c12.42,0,22.51,10.09,22.51,22.51v51.83h-45.02v-51.83c0-12.42,10.09-22.51,22.51-22.51Z" fill="#fff"/><g clip-path="url(#clippath-5)"><ellipse cx="587.23" cy="615.94" rx="16.44" ry="32.88" stroke-width="0"/><path d="m589.37,621l1.74.92c.68.36,1.47-.22,1.34-.97l-.33-1.94c-.05-.3.05-.61.27-.82l1.41-1.37c.55-.53.25-1.46-.51-1.57l-1.95-.28c-.3-.04-.56-.23-.7-.51l-.87-1.76c-.34-.69-1.32-.69-1.66,0l-.87,1.76c-.13.27-.39.46-.7.51l-1.95.28c-.76.11-1.06,1.04-.51,1.57l1.41,1.37c.22.21.32.52.27.82l-.33,1.94c-.13.75.66,1.33,1.34.97l1.74-.92c.27-.14.59-.14.86,0Z" fill="#fff" stroke-width="0"/><path d="m584.4,613.12l.71.37c.28.14.6-.09.55-.4l-.14-.79c-.02-.12.02-.25.11-.33l.57-.56c.22-.22.1-.6-.21-.64l-.79-.12c-.12-.02-.23-.09-.28-.21l-.35-.72c-.14-.28-.54-.28-.67,0l-.35.72c-.05.11-.16.19-.28.21l-.79.12c-.31.04-.43.42-.21.64l.57.56c.09.09.13.21.11.33l-.14.79c-.05.31.27.54.55.4l.71-.37c.11-.06.24-.06.35,0Z" fill="#fff" stroke-width="0"/><path d="m581.86,622.35c1.45,0,1.46-2.26,0-2.26s-1.46,2.26,0,2.26h0Z" fill="#fff" stroke-width="0"/></g><path d="m586.42,570.76h0c12.42,0,22.51,10.09,22.51,22.51v51.83h-45.02v-51.83c0-12.42,10.09-22.51,22.51-22.51Z" fill="none" stroke="#000" stroke-linecap="round" stroke-miterlimit="10" stroke-width="2.44"/><path d="m633.71,647.19s36.57-17.3,74.48,0" fill="#f5a5d6" stroke="#000" stroke-linecap="round" stroke-miterlimit="10" stroke-width="1.86"/><path d="m771.24,476.49l4.6,2.42c1.79.94,3.88-.58,3.54-2.57l-.88-5.12c-.14-.79.13-1.6.7-2.16l3.72-3.63c1.45-1.41.65-3.87-1.35-4.16l-5.14-.75c-.79-.12-1.48-.61-1.84-1.33l-2.3-4.66c-.89-1.81-3.48-1.81-4.37,0l-2.3,4.66c-.36.72-1.04,1.22-1.84,1.33l-5.14.75c-2,.29-2.8,2.75-1.35,4.16l3.72,3.63c.57.56.84,1.37.7,2.16l-.88,5.12c-.34,1.99,1.75,3.51,3.54,2.57l4.6-2.42c.71-.37,1.56-.37,2.27,0Z" fill="#fff" stroke="#000" stroke-miterlimit="10" stroke-width="1.86"/><path d="m803.57,816.32l9.19,4.83c3.58,1.88,7.75-1.16,7.07-5.14l-1.76-10.24c-.27-1.58.25-3.19,1.4-4.31l7.44-7.25c2.89-2.82,1.3-7.73-2.7-8.31l-10.28-1.49c-1.59-.23-2.96-1.23-3.67-2.67l-4.6-9.31c-1.79-3.62-6.95-3.62-8.74,0l-4.6,9.31c-.71,1.44-2.08,2.44-3.67,2.67l-10.28,1.49c-4,.58-5.59,5.49-2.7,8.31l7.44,7.25c1.15,1.12,1.67,2.73,1.4,4.31l-1.76,10.24c-.68,3.98,3.5,7.02,7.07,5.14l9.19-4.83c1.42-.75,3.12-.75,4.54,0Z" fill="#fff" stroke="#000" stroke-miterlimit="10" stroke-width="1.86"/><path d="m412.3,659.78l4,2.1c1.55.82,3.37-.5,3.08-2.23l-.76-4.45c-.12-.69.11-1.39.61-1.88l3.23-3.15c1.26-1.23.56-3.36-1.17-3.62l-4.47-.65c-.69-.1-1.29-.53-1.6-1.16l-2-4.05c-.78-1.58-3.02-1.58-3.8,0l-2,4.05c-.31.63-.91,1.06-1.6,1.16l-4.47.65c-1.74.25-2.43,2.39-1.17,3.62l3.23,3.15c.5.49.73,1.19.61,1.88l-.76,4.45c-.3,1.73,1.52,3.05,3.08,2.23l4-2.1c.62-.32,1.36-.32,1.97,0Z" fill="#fff" stroke="#000" stroke-miterlimit="10" stroke-width="1.86"/><path d="m417.14,793.33l4.34-1.26c1.69-.49,2.08-2.7.67-3.74l-3.64-2.68c-.56-.41-.88-1.08-.86-1.77l.14-4.51c.06-1.76-1.93-2.81-3.35-1.79l-3.67,2.63c-.57.41-1.3.51-1.95.27l-4.25-1.53c-1.65-.6-3.27.96-2.74,2.64l1.37,4.3c.21.66.08,1.39-.35,1.94l-2.77,3.57c-1.08,1.39-.1,3.41,1.66,3.42l4.52.03c.7,0,1.35.35,1.74.93l2.54,3.74c.99,1.45,3.21,1.14,3.76-.52l1.42-4.29c.22-.66.75-1.17,1.42-1.37Z" fill="#fff" stroke="#000" stroke-miterlimit="10" stroke-width="1.86"/><path d="m522.77,448.68l2.11-.61c.82-.24,1.01-1.32.32-1.82l-1.77-1.3c-.27-.2-.43-.52-.42-.86l.07-2.2c.03-.86-.94-1.37-1.63-.87l-1.79,1.28c-.28.2-.63.25-.95.13l-2.07-.75c-.81-.29-1.59.47-1.33,1.28l.67,2.1c.1.32.04.68-.17.95l-1.35,1.74c-.52.68-.05,1.66.81,1.67h2.2c.34.02.66.18.85.47l1.24,1.82c.48.71,1.56.56,1.83-.26l.69-2.09c.11-.32.37-.57.69-.67Z" fill="#fff" stroke="#000" stroke-miterlimit="10" stroke-width="1.39"/><path d="m549.18,647.19s36.57-17.3,74.48,0" fill="#f5a5d6" stroke="#000" stroke-linecap="round" stroke-miterlimit="10" stroke-width="1.86"/><path d="m813.99,701.39l11.21,16.05,2.25,3.22c2.2,2.57,5.11,4.58,8.56,5.72l155.69,51.47c10.11,3.34,21.03-2.15,24.37-12.26l111.45-337.11c1.78-5.37,1.06-10.98-1.52-15.54-.01-.01-.02-.04-.03-.05-.12-.23-.25-.46-.38-.7-2.94-5.37-6.47-9.7-9.99-13.17-.33,1.63-.66,3.25-.99,4.88l-155.04-51.26c-10.12-3.35-21.03,2.14-24.37,12.26l-111.45,337.11c-.77,2.34-1.07,4.72-.96,7.03l-8.8-7.64Z" fill="url(#Dégradé_sans_nom_7)" stroke="#000" stroke-miterlimit="10"/><rect x="864.48" y="355.37" width="202.56" height="393.64" rx="19.29" ry="19.29" transform="translate(1709.38 1379.62) rotate(-161.71)" fill="url(#Dégradé_sans_nom_7-2)" stroke="#000" stroke-miterlimit="10"/><rect x="877.95" y="381.54" width="175.63" height="341.3" rx="16.73" ry="16.73" transform="translate(1709.38 1379.62) rotate(-161.71)" fill="url(#Dégradé_sans_nom_24)" stroke="#000" stroke-miterlimit="10"/><path d="m591.62,1190.48l21.05,11.06c8.18,4.3,17.75-2.65,16.19-11.76l-4.02-23.43c-.62-3.62.58-7.31,3.21-9.87l17.03-16.6c6.62-6.45,2.97-17.7-6.18-19.03l-23.53-3.42c-3.63-.53-6.77-2.81-8.4-6.1l-10.52-21.32c-4.09-8.29-15.92-8.29-20.01,0l-10.52,21.32c-1.63,3.29-4.77,5.57-8.4,6.1l-23.53,3.42c-9.15,1.33-12.8,12.57-6.18,19.03l17.03,16.6c2.63,2.56,3.83,6.26,3.21,9.87l-4.02,23.43c-1.56,9.11,8,16.06,16.19,11.76l21.05-11.06c3.25-1.71,7.13-1.71,10.38,0Z" fill="#fff" stroke="#000" stroke-miterlimit="10" stroke-width="2"/><path d="m401.9,197.58l8.08,4.25c3.14,1.65,6.82-1.02,6.22-4.52l-1.54-9c-.24-1.39.22-2.81,1.23-3.79l6.54-6.37c2.54-2.48,1.14-6.8-2.37-7.31l-9.04-1.31c-1.4-.2-2.6-1.08-3.23-2.34l-4.04-8.19c-1.57-3.18-6.11-3.18-7.68,0l-4.04,8.19c-.62,1.26-1.83,2.14-3.23,2.34l-9.04,1.31c-3.51.51-4.92,4.83-2.37,7.31l6.54,6.37c1.01.98,1.47,2.4,1.23,3.79l-1.54,9c-.6,3.5,3.07,6.17,6.22,4.52l8.08-4.25c1.25-.66,2.74-.66,3.99,0Z" fill="#fff" stroke="#000" stroke-miterlimit="10" stroke-width="2"/><path d="m1098.58,545.07l9.13-.24c3.55-.09,5.45-4.22,3.22-6.98l-5.75-7.1c-.89-1.1-1.18-2.56-.78-3.91l2.59-8.76c1.01-3.41-2.33-6.49-5.64-5.21l-8.52,3.27c-1.32.51-2.8.33-3.96-.47l-7.53-5.17c-2.93-2.01-6.89.21-6.7,3.76l.48,9.12c.07,1.41-.55,2.76-1.67,3.62l-7.24,5.56c-2.82,2.16-1.93,6.62,1.5,7.54l8.82,2.36c1.36.37,2.46,1.38,2.93,2.71l3.05,8.61c1.19,3.35,5.7,3.88,7.63.9l4.97-7.66c.77-1.18,2.07-1.91,3.48-1.95Z" fill="#fff" stroke="#000" stroke-miterlimit="10" stroke-width="2"/></svg>