<?xml version="1.0" encoding="UTF-8"?><svg id="Calque_1" xmlns="http://www.w3.org/2000/svg" xmlns:xlink="http://www.w3.org/1999/xlink" viewBox="0 0 752.03 271.32"><defs><linearGradient id="Dégradé_sans_nom_4" x1="71.99" y1="5.46" x2="191.8" y2="249.31" gradientUnits="userSpaceOnUse"><stop offset="0" stop-color="#fff"/><stop offset="0" stop-color="#fefcfe"/><stop offset=".08" stop-color="#fbe1f1"/><stop offset=".17" stop-color="#f9cbe7"/><stop offset=".27" stop-color="#f7badf"/><stop offset=".4" stop-color="#f5adda"/><stop offset=".57" stop-color="#f5a6d6"/><stop offset="1" stop-color="#f5a5d6"/></linearGradient><clipPath id="clippath"><path d="m29.02,115.61s-7.29-29.22,26.08-34.5c0,0,23.77-54.27,61.23-33.62,0,0,29.29-16.57,49.7,6,0,0,28.09-20.65,44.42,15.85,0,0,22.33-7.44,31.21,30.49,0,0,32.66,10.56,15.85,38.66,0,0,5.28,10.08-.72,16.09,0,0,10.56,15.85-3.36,26.41,0,0-.24,11.77-10.32,14.17,0,0,3.84,18.97-17.05,20.89,0,0-22.81,26.89-44.9,4.32,0,0-16.57,11.77-31.21,0,0,0-16.09,13.69-38.42,4.8,0,0-24.25,10.32-37.94-4.8,0,0-13.93,8.16-21.37-7.68,0,0-13.45,1.44-13.93-17.77,0,0-30.01-16.09-12.73-42.02,0,0-22.39-22.23,3.45-37.29Z" fill="url(#Dégradé_sans_nom_4)" stroke="#000" stroke-miterlimit="10" stroke-width=".92"/></clipPath><clipPath id="clippath-1"><path d="m108.83,105.79h0c6.13,0,11.11,4.98,11.11,11.11v25.59h-22.22v-25.59c0-6.13,4.98-11.11,11.11-11.11Z" fill="#fff" stroke="#000" stroke-linecap="round" stroke-miterlimit="10" stroke-width="1.21"/></clipPath><clipPath id="clippath-2"><path d="m150.56,105.79h0c6.13,0,11.11,4.98,11.11,11.11v25.59h-22.22v-25.59c0-6.13,4.98-11.11,11.11-11.11Z" fill="#fff" stroke="#000" stroke-linecap="round" stroke-miterlimit="10" stroke-width="1.21"/></clipPath><linearGradient id="Dégradé_sans_nom_6" x1="612.44" y1="108.85" x2="655.7" y2="142.63" gradientUnits="userSpaceOnUse"><stop offset="0" stop-color="#fff"/><stop offset=".27" stop-color="#fef9dd"/><stop offset=".88" stop-color="#fbec88"/><stop offset="1" stop-color="#fbea77"/></linearGradient></defs><path d="m263.36,147.54l2.14-.62c.83-.24,1.03-1.33.33-1.85l-1.8-1.32c-.28-.2-.44-.53-.43-.88l.07-2.23c.03-.87-.95-1.39-1.66-.88l-1.81,1.3c-.28.2-.64.25-.96.13l-2.1-.76c-.82-.29-1.61.48-1.35,1.3l.68,2.13c.1.33.04.69-.17.96l-1.37,1.76c-.53.69-.05,1.68.82,1.69h2.23c.34.02.67.19.86.47l1.25,1.84c.49.72,1.59.56,1.86-.26l.7-2.12c.11-.33.37-.58.7-.68Z" fill="#fff" stroke="#000" stroke-miterlimit="10" stroke-width=".92"/><path d="m29.02,115.61s-7.29-29.22,26.08-34.5c0,0,23.77-54.27,61.23-33.62,0,0,29.29-16.57,49.7,6,0,0,28.09-20.65,44.42,15.85,0,0,22.33-7.44,31.21,30.49,0,0,32.66,10.56,15.85,38.66,0,0,5.28,10.08-.72,16.09,0,0,10.56,15.85-3.36,26.41,0,0-.24,11.77-10.32,14.17,0,0,3.84,18.97-17.05,20.89,0,0-22.81,26.89-44.9,4.32,0,0-16.57,11.77-31.21,0,0,0-16.09,13.69-38.42,4.8,0,0-24.25,10.32-37.94-4.8,0,0-13.93,8.16-21.37-7.68,0,0-13.45,1.44-13.93-17.77,0,0-30.01-16.09-12.73-42.02,0,0-22.39-22.23,3.45-37.29Z" fill="url(#Dégradé_sans_nom_4)"/><g clip-path="url(#clippath)"><path d="m23.71,152.77c-4.01,7.62-4.9,16.81-2.08,24.99,2.56,7.43,7.91,13.75,14.8,17.52,1.55.85,2.94-1.52,1.39-2.37-6.25-3.42-11.2-9.12-13.53-15.88-2.58-7.49-1.88-15.87,1.8-22.87.82-1.56-1.55-2.96-2.37-1.39h0Z" fill="#fbea77" stroke-width="0"/><path d="m36.84,195.57c.97,4.55,2.01,9.35,4.84,13.16,2.48,3.35,6.19,5.87,10.47,5.89,1.77.01,1.77-2.74,0-2.75-3.55-.02-6.66-2.33-8.57-5.2-2.35-3.52-3.22-7.76-4.09-11.84-.37-1.73-3.02-1-2.65.73h0Z" fill="#fbea77" stroke-width="0"/><path d="m51.44,214.55c4.37,7.06,12.89,10.83,21.05,9.44,1.74-.3,1-2.95-.73-2.65-6.91,1.17-14.27-2.24-17.94-8.18-.93-1.5-3.31-.12-2.37,1.39h0Z" fill="#fbea77" stroke-width="0"/><path d="m26.06,151.79c-3.68-2.9-6.46-7.34-7.62-11.84-1.93-7.44.77-15.09,6.33-20.22,1.36-1.26,2.88-2.41,4.53-3.27s.18-3.19-1.39-2.37c-4.63,2.4-8.61,6.7-10.75,11.41-3.51,7.71-2.37,16.6,2.55,23.42,1.26,1.75,2.7,3.48,4.41,4.82,1.37,1.08,3.33-.85,1.94-1.94h0Z" fill="#fbea77" stroke-width="0"/><path d="m29.98,115.26c-1.2-13.42,6.55-26.35,18.99-31.56,1.92-.81,3.93-1.42,5.97-1.83,1.73-.35,1-3-.73-2.65-13.72,2.74-24.61,14.17-26.68,28.01-.4,2.66-.54,5.35-.3,8.03.16,1.75,2.91,1.77,2.75,0h0Z" fill="#fbea77" stroke-width="0"/></g><path d="m29.02,115.61s-7.29-29.22,26.08-34.5c0,0,23.77-54.27,61.23-33.62,0,0,29.29-16.57,49.7,6,0,0,28.09-20.65,44.42,15.85,0,0,22.33-7.44,31.21,30.49,0,0,32.66,10.56,15.85,38.66,0,0,5.28,10.08-.72,16.09,0,0,10.56,15.85-3.36,26.41,0,0-.24,11.77-10.32,14.17,0,0,3.84,18.97-17.05,20.89,0,0-22.81,26.89-44.9,4.32,0,0-16.57,11.77-31.21,0,0,0-16.09,13.69-38.42,4.8,0,0-24.25,10.32-37.94-4.8,0,0-13.93,8.16-21.37-7.68,0,0-13.45,1.44-13.93-17.77,0,0-30.01-16.09-12.73-42.02,0,0-22.39-22.23,3.45-37.29Z" fill="none" stroke="#000" stroke-miterlimit="10" stroke-width=".92"/><path d="m210.45,69.34c1.34,2.93,2.67,6.26,3.88,9.98,1.09,3.36,1.91,6.53,2.54,9.43,0,0,7.15,39.79,1.77,42.71" fill="none" stroke="#000" stroke-linecap="round" stroke-miterlimit="10" stroke-width=".92"/><path d="m55.1,81.11s6.65-2.52,10.53,0" fill="none" stroke="#000" stroke-miterlimit="10" stroke-width=".92"/><path d="m29.02,115.61c.31,1.34.8,2.95,1.64,4.68.48,1,.99,1.87,1.49,2.62" fill="none" stroke="#000" stroke-linecap="round" stroke-miterlimit="10" stroke-width=".92"/><path d="m64.25,192.46s6.81,6.55,18.61,5.5" fill="none" stroke="#000" stroke-linecap="round" stroke-miterlimit="10" stroke-width=".92"/><path d="m76,197.73s2.02,6.27,9.22,6.14" fill="none" stroke="#000" stroke-linecap="round" stroke-miterlimit="10" stroke-width=".92"/><path d="m241.67,99.84s-10.18-3.23-15.45,0" fill="none" stroke="#000" stroke-linecap="round" stroke-miterlimit="10" stroke-width=".92"/><path d="m257.51,138.5s-6.44,7.13-12.57,5.77" fill="none" stroke="#000" stroke-linecap="round" stroke-miterlimit="10" stroke-width=".92"/><path d="m243.11,195.16s-.66-5.54-2.39-5.54" fill="none" stroke="#000" stroke-linecap="round" stroke-miterlimit="10" stroke-width=".92"/><path d="m226.06,216.05s-2.79.18-2.79-1.51" fill="none" stroke="#000" stroke-linecap="round" stroke-miterlimit="10" stroke-width=".92"/><path d="m181.16,220.37s-8.38-6.08-8.38-10.59" fill="none" stroke="#000" stroke-linecap="round" stroke-miterlimit="10" stroke-width=".92"/><path d="m173.83,212.94s-7.38,2.25-7.57,0" fill="none" stroke="#000" stroke-linecap="round" stroke-miterlimit="10" stroke-width=".92"/><path d="m116.33,47.49s9.47,3.46,7.98,6.66" fill="none" stroke="#000" stroke-linecap="round" stroke-miterlimit="10" stroke-width=".92"/><path d="m183.06,148.01s30.16,21.96,18.09,41.6" fill="none" stroke="#000" stroke-linecap="round" stroke-miterlimit="10" stroke-width=".92"/><path d="m193.53,128.39c2.73-.78,15.35-4.07,25.11,3.06,1.89,1.38,5.79,4.23,6.65,9.01,1.44,7.97-6.78,14.52-7.94,15.45-8.73,6.97-19.8,4.7-21.71,4.28" fill="none" stroke="#000" stroke-linecap="round" stroke-miterlimit="10" stroke-width=".92"/><path d="m166.03,53.5s11.39,7.37,6.75,9.52" fill="none" stroke="#000" stroke-linecap="round" stroke-miterlimit="10" stroke-width=".92"/><path d="m172.78,59.18s27.66-1.08,11.97,30.92" fill="none" stroke="#000" stroke-linecap="round" stroke-miterlimit="10" stroke-width=".92"/><path d="m214.92,81.2s10.38,4.45,10.61,5.47" fill="none" stroke="#000" stroke-linecap="round" stroke-miterlimit="10" stroke-width=".92"/><path d="m204,177.69s-.92,5.02,19.02,0" fill="none" stroke="#000" stroke-linecap="round" stroke-miterlimit="10" stroke-width=".92"/><path d="m256.79,154.58s-5.24,3.03-6.65,1.76" fill="none" stroke="#000" stroke-linecap="round" stroke-miterlimit="10" stroke-width=".92"/><path d="m253.43,180.99s-2.58,1.6-4.28-1.07" fill="none" stroke="#000" stroke-linecap="round" stroke-miterlimit="10" stroke-width=".92"/><path d="m120.4,165.95c1.1.81,4.54,3.13,9.51,3.13,4.99,0,8.43-2.32,9.53-3.13" fill="none" stroke="#000" stroke-linecap="round" stroke-miterlimit="10" stroke-width=".92"/><path d="m139.55,163.92s-.67,2.79,1.32,3.11" fill="none" stroke="#000" stroke-linecap="round" stroke-miterlimit="10" stroke-width=".92"/><path d="m120.29,164.28s.67,2.79-1.32,3.11" fill="none" stroke="#000" stroke-linecap="round" stroke-miterlimit="10" stroke-width=".92"/><path d="m95.77,55.4c3.54,0,3.54-5.5,0-5.5s-3.54,5.5,0,5.5h0Z" fill="#fff" stroke-width="0"/><path d="m88.65,58.15c-5.63,2.85-10.46,7.64-13.42,13.55,2.12-6.26,6.33-11.95,12-15.9,1.62-1.08,3.13,1.43,1.42,2.36h0Z" fill="#fff" stroke-width="0"/><path d="m34.74,162.15c-4.57,5.97-2.56,15.26,4.07,19.1-3.52-1.58-6.4-4.74-7.65-8.6-1.25-3.86-.83-8.31,1.28-12.01.99-1.64,3.41-.06,2.3,1.51h0Z" fill="#fff" stroke-width="0"/><path d="m84.99,218.96c4.73,2.87,10.37,4.41,16.08,4.3-5.66.71-11.61-.2-16.94-2.68-1.14-.56-.25-2.25.86-1.62h0Z" fill="#fff" stroke-width="0"/><path d="m108.83,105.79h0c6.13,0,11.11,4.98,11.11,11.11v25.59h-22.22v-25.59c0-6.13,4.98-11.11,11.11-11.11Z" fill="#fff"/><g clip-path="url(#clippath-1)"><ellipse cx="104" cy="131.04" rx="8.12" ry="16.23" stroke-width="0"/><path d="m106.09,128.26l.86.45c.33.18.73-.11.66-.48l-.16-.96c-.03-.15.02-.3.13-.4l.7-.68c.27-.26.12-.72-.25-.78l-.96-.14c-.15-.02-.28-.11-.34-.25l-.43-.87c-.17-.34-.65-.34-.82,0l-.43.87c-.07.13-.19.23-.34.25l-.96.14c-.37.05-.52.51-.25.78l.7.68c.11.1.16.26.13.4l-.16.96c-.06.37.33.66.66.48l.86-.45c.13-.07.29-.07.42,0Z" fill="#fff" stroke-width="0"/><path d="m103.64,124.37l.35.18c.14.07.3-.04.27-.2l-.07-.39c-.01-.06,0-.12.05-.16l.28-.28c.11-.11.05-.29-.1-.32l-.39-.06c-.06,0-.11-.05-.14-.1l-.17-.35c-.07-.14-.26-.14-.33,0l-.17.35c-.03.05-.08.09-.14.1l-.39.06c-.15.02-.21.21-.1.32l.28.28s.06.1.05.16l-.07.39c-.03.15.13.27.27.2l.35-.18c.05-.03.12-.03.17,0Z" fill="#fff" stroke-width="0"/><path d="m102.39,128.93c.72,0,.72-1.12,0-1.12s-.72,1.12,0,1.12h0Z" fill="#fff" stroke-width="0"/></g><path d="m108.83,105.79h0c6.13,0,11.11,4.98,11.11,11.11v25.59h-22.22v-25.59c0-6.13,4.98-11.11,11.11-11.11Z" fill="none" stroke="#000" stroke-linecap="round" stroke-miterlimit="10" stroke-width="1.21"/><path d="m90.44,143.52s18.06-8.54,36.77,0" fill="#f5a5d6" stroke="#000" stroke-linecap="round" stroke-miterlimit="10" stroke-width=".92"/><path d="m150.56,105.79h0c6.13,0,11.11,4.98,11.11,11.11v25.59h-22.22v-25.59c0-6.13,4.98-11.11,11.11-11.11Z" fill="#fff"/><g clip-path="url(#clippath-2)"><ellipse cx="145.73" cy="131.04" rx="8.12" ry="16.23" stroke-width="0"/><path d="m147.83,128.26l.86.45c.33.18.73-.11.66-.48l-.16-.96c-.03-.15.02-.3.13-.4l.7-.68c.27-.26.12-.72-.25-.78l-.96-.14c-.15-.02-.28-.11-.34-.25l-.43-.87c-.17-.34-.65-.34-.82,0l-.43.87c-.07.13-.19.23-.34.25l-.96.14c-.37.05-.52.51-.25.78l.7.68c.11.1.16.26.13.4l-.16.96c-.06.37.33.66.66.48l.86-.45c.13-.07.29-.07.42,0Z" fill="#fff" stroke-width="0"/><path d="m145.37,124.37l.35.18c.14.07.3-.04.27-.2l-.07-.39c-.01-.06,0-.12.05-.16l.28-.28c.11-.11.05-.29-.1-.32l-.39-.06c-.06,0-.11-.05-.14-.1l-.17-.35c-.07-.14-.26-.14-.33,0l-.17.35c-.03.05-.08.09-.14.1l-.39.06c-.15.02-.21.21-.1.32l.28.28s.06.1.05.16l-.07.39c-.03.15.13.27.27.2l.35-.18c.05-.03.12-.03.17,0Z" fill="#fff" stroke-width="0"/><path d="m144.12,128.93c.72,0,.72-1.12,0-1.12s-.72,1.12,0,1.12h0Z" fill="#fff" stroke-width="0"/></g><path d="m150.56,105.79h0c6.13,0,11.11,4.98,11.11,11.11v25.59h-22.22v-25.59c0-6.13,4.98-11.11,11.11-11.11Z" fill="none" stroke="#000" stroke-linecap="round" stroke-miterlimit="10" stroke-width="1.21"/><path d="m132.18,143.52s18.06-8.54,36.77,0" fill="#f5a5d6" stroke="#000" stroke-linecap="round" stroke-miterlimit="10" stroke-width=".92"/><path d="m200.07,59.24l2.27,1.19c.88.46,1.91-.29,1.75-1.27l-.43-2.53c-.07-.39.06-.79.35-1.07l1.84-1.79c.71-.7.32-1.91-.67-2.05l-2.54-.37c-.39-.06-.73-.3-.91-.66l-1.14-2.3c-.44-.89-1.72-.89-2.16,0l-1.14,2.3c-.18.36-.51.6-.91.66l-2.54.37c-.99.14-1.38,1.36-.67,2.05l1.84,1.79c.28.28.41.67.35,1.07l-.43,2.53c-.17.98.86,1.73,1.75,1.27l2.27-1.19c.35-.18.77-.18,1.12,0Z" fill="#fff" stroke="#000" stroke-miterlimit="10" stroke-width=".92"/><path d="m216.04,227.02l4.54,2.39c1.77.93,3.83-.57,3.49-2.54l-.87-5.05c-.13-.78.12-1.58.69-2.13l3.67-3.58c1.43-1.39.64-3.82-1.33-4.1l-5.07-.74c-.78-.11-1.46-.61-1.81-1.32l-2.27-4.6c-.88-1.79-3.43-1.79-4.32,0l-2.27,4.6c-.35.71-1.03,1.2-1.81,1.32l-5.07.74c-1.97.29-2.76,2.71-1.33,4.1l3.67,3.58c.57.55.83,1.35.69,2.13l-.87,5.05c-.34,1.97,1.73,3.46,3.49,2.54l4.54-2.39c.7-.37,1.54-.37,2.24,0Z" fill="#fff" stroke="#000" stroke-miterlimit="10" stroke-width=".92"/><path d="m22.86,149.73l1.97,1.04c.77.4,1.66-.25,1.52-1.1l-.38-2.2c-.06-.34.05-.69.3-.93l1.6-1.56c.62-.61.28-1.66-.58-1.78l-2.21-.32c-.34-.05-.64-.26-.79-.57l-.99-2c-.38-.78-1.49-.78-1.88,0l-.99,2c-.15.31-.45.52-.79.57l-2.21.32c-.86.12-1.2,1.18-.58,1.78l1.6,1.56c.25.24.36.59.3.93l-.38,2.2c-.15.85.75,1.51,1.52,1.1l1.97-1.04c.3-.16.67-.16.97,0Z" fill="#fff" stroke="#000" stroke-miterlimit="10" stroke-width=".92"/><path d="m25.25,215.67l2.14-.62c.83-.24,1.03-1.33.33-1.85l-1.8-1.32c-.28-.2-.44-.53-.43-.88l.07-2.23c.03-.87-.95-1.39-1.66-.88l-1.81,1.3c-.28.2-.64.25-.96.13l-2.1-.76c-.82-.29-1.61.48-1.35,1.3l.68,2.13c.1.33.04.69-.17.96l-1.37,1.76c-.53.69-.05,1.68.82,1.69h2.23c.34.02.67.19.86.47l1.25,1.84c.49.72,1.59.56,1.86-.26l.7-2.12c.11-.33.37-.58.7-.68Z" fill="#fff" stroke="#000" stroke-miterlimit="10" stroke-width=".92"/><path d="m77.4,45.52l1.04-.3c.41-.12.5-.65.16-.9l-.88-.64c-.14-.1-.21-.26-.21-.43l.03-1.09c.01-.42-.46-.68-.81-.43l-.88.63c-.14.1-.31.12-.47.07l-1.02-.37c-.4-.14-.79.23-.66.63l.33,1.04c.05.16.02.33-.08.47l-.67.86c-.26.33-.02.82.4.82h1.09c.17,0,.32.09.42.23l.61.9c.24.35.77.28.91-.13l.34-1.03c.05-.16.18-.28.34-.33Z" fill="#fff" stroke="#000" stroke-miterlimit="10" stroke-width=".69"/><path d="m315.34,130.21v97.78h23.57c-1.72-9.39-2.73-20.66-2.73-32.8,0-32.67,7.27-59.16,16.25-59.16s16.25,26.49,16.25,59.16c0,12.13-1,23.41-2.73,32.8h15.26c-1.72-9.39-2.73-20.66-2.73-32.8,0-32.67,7.27-59.16,16.25-59.16s16.25,26.49,16.25,59.16c0,12.13-1,23.41-2.73,32.8h24.79v-97.78c0-19.81-16.06-35.86-35.86-35.86h-45.98c-19.81,0-35.86,16.06-35.86,35.86Z" stroke-width="0"/><path d="m459.01,130.55c0-6.41-5.18-11.61-11.56-11.61s-6.39,23.23,0,23.23,11.56-5.2,11.56-11.61Z" stroke-width="0"/><path d="m630.44,130.52v97.47h35.62c-.04-1.72-.07-3.45-.07-5.21,0-32.67,7.27-59.16,16.25-59.16s16.25,26.49,16.25,59.16c0,1.76-.03,3.49-.07,5.21h31.33v-97.47c0-19.98-16.19-36.17-36.17-36.17h-26.97c-19.98,0-36.17,16.19-36.17,36.17Zm52.11,14.71c-8.46,0-15.33-6.86-15.33-15.33s6.86-15.33,15.33-15.33,15.33,6.86,15.33,15.33-6.86,15.33-15.33,15.33Z" stroke-width="0"/><path d="m544.2,151.38c.02,1.36.03,2.73.03,4.12,0,25.31-3.74,45.82-8.35,45.82s-8.35-20.52-8.35-45.82c0-1.39.01-2.76.03-4.12h-14.47c-13.85,0-25.07,11.23-25.07,25.07v52.67h9c-.1-2.81-.15-5.71-.15-8.67,0-25.31,3.74-45.82,8.35-45.82s8.35,20.52,8.35,45.82c0,2.97-.05,5.86-.15,8.67h11.64c13.85,0,25.07-11.23,25.07-25.07v-52.67h-5.93Z" stroke-width="0"/><path d="m444.51,148.3c12.09,0,21.37,9.84,27.82,29.51,1.44,5.95,2.16,11.74,2.16,17.38v1.28c0,13.57-3.03,24.42-9.1,32.54h-20.41c-.58,0-.87-.29-.87-.87v-78.97l.41-.87Z" stroke-width="0"/><path d="m599.97,118.86v32.81h-16.19c-10.26,0-18.58,8.32-18.58,18.58v40.85c0,10.26,8.32,18.58,18.58,18.58h31.19v-95.83c0-8.28-6.72-15-15-15h0Zm-2.99,97.83h-17.38l.19-14.1c0-28.8,3.92-36.09,8.76-36.09s8.76,9.11,8.76,36.09c0,3.53-.33,14.1-.33,14.1Z" stroke-width="0"/><path d="m321.06,125.93v97.78h23.57c-1.72-9.39-2.73-20.66-2.73-32.8,0-32.67,7.27-59.16,16.25-59.16s16.25,26.49,16.25,59.16c0,12.13-1,23.41-2.73,32.8h15.26c-1.72-9.39-2.73-20.66-2.73-32.8,0-32.67,7.27-59.16,16.25-59.16s16.25,26.49,16.25,59.16c0,12.13-1,23.41-2.73,32.8h24.79v-97.78c0-19.81-16.06-35.86-35.86-35.86h-45.98c-19.81,0-35.86,16.06-35.86,35.86Z" fill="#f5a5d6" stroke="#000" stroke-miterlimit="10" stroke-width="1.43"/><path d="m464.73,126.27c0-6.41-5.18-11.61-11.56-11.61s-6.39,23.23,0,23.23,11.56-5.2,11.56-11.61Z" fill="#f5a5d6" stroke="#000" stroke-miterlimit="10" stroke-width="1.43"/><path d="m636.16,126.23v97.47h35.62c-.04-1.72-.07-3.45-.07-5.21,0-32.67,7.27-59.16,16.25-59.16s16.25,26.49,16.25,59.16c0,1.76-.03,3.49-.07,5.21h31.33v-97.47c0-19.98-16.19-36.17-36.17-36.17h-26.97c-19.98,0-36.17,16.19-36.17,36.17Zm52.11,14.71c-8.46,0-15.33-6.86-15.33-15.33s6.86-15.33,15.33-15.33,15.33,6.86,15.33,15.33-6.86,15.33-15.33,15.33Z" fill="url(#Dégradé_sans_nom_6)" stroke="#000" stroke-miterlimit="10" stroke-width="1.91"/><path d="m549.92,147.09c.02,1.36.03,2.73.03,4.12,0,25.31-3.74,45.82-8.35,45.82s-8.35-20.52-8.35-45.82c0-1.39.01-2.76.03-4.12h-14.47c-13.85,0-25.07,11.23-25.07,25.07v52.67h9c-.1-2.81-.15-5.71-.15-8.67,0-25.31,3.74-45.82,8.35-45.82s8.35,20.52,8.35,45.82c0,2.97-.05,5.86-.15,8.67h11.64c13.85,0,25.07-11.23,25.07-25.07v-52.67h-5.93Z" fill="#f5a5d6" stroke="#000" stroke-miterlimit="10" stroke-width="1.43"/><path d="m450.23,144.02c12.09,0,21.37,9.84,27.82,29.51,1.44,5.95,2.16,11.74,2.16,17.38v1.28c0,13.57-3.03,24.42-9.1,32.54h-20.41c-.58,0-.87-.29-.87-.87v-78.97l.41-.87Z" fill="#f5a5d6" stroke="#000" stroke-miterlimit="10" stroke-width="1.43"/><path d="m605.68,114.57v32.81h-16.19c-10.26,0-18.58,8.32-18.58,18.58v40.85c0,10.26,8.32,18.58,18.58,18.58h31.19v-95.83c0-8.28-6.72-15-15-15h0Zm-2.99,97.83h-17.38l.19-14.1c0-28.8,3.92-36.09,8.76-36.09s8.76,9.11,8.76,36.09c0,3.53-.33,14.1-.33,14.1Z" fill="#f5a5d6" stroke="#000" stroke-miterlimit="10" stroke-width="1.43"/><polygon points="315.34 227.99 321.06 223.7 344.62 223.7 338.91 227.99 315.34 227.99" stroke-width="0"/><polygon points="365.95 227.99 371.66 223.7 386.92 223.7 381.21 227.99 365.95 227.99" stroke-width="0"/><polygon points="408.25 227.99 413.96 223.7 438.76 223.7 433.05 227.99 408.25 227.99" stroke-width="0"/><polygon points="444.11 228.14 450.69 224.73 471.11 224.73 465.39 229.02 444.11 228.14" stroke-width="0"/><polygon points="488.01 229.12 493.73 224.84 502.72 224.84 497.01 229.12 488.01 229.12" stroke-width="0"/><polygon points="544.2 151.38 549.92 147.09 549.92 155.31 544.2 159.6 544.2 151.38" stroke-width="0"/><polygon points="605.68 114.57 599.97 118.86 599.97 129.9 605.68 129.9 605.68 114.57" stroke-width="0"/><polygon points="672.5 224.41 666.06 227.99 630.43 227.99 636.15 223.7 672.5 224.41" stroke-width="0"/><polygon points="698.42 227.99 704.14 223.7 735.47 223.7 729.75 227.99 698.42 227.99" stroke-width="0"/><polygon points="446.12 119.32 450.84 114.93 448.59 122.63 446.12 122.63 446.12 119.32" stroke-width="0"/><polygon points="444.51 148.3 450.23 144.02 449.82 152.8 444.11 153.75 444.51 148.3" stroke-width="0"/><polygon points="620.68 225.4 614.97 229.69 608.13 229.69 610.26 225.4 620.68 225.4" stroke-width="0"/><path d="m454.82,120.72c2.07,0,2.07-3.21,0-3.21s-2.07,3.21,0,3.21h0Z" fill="#fff" stroke-width="0"/><path d="m457.62,123.85c.14.26.26.52.39.78.05.11.03.07-.05-.12.03.07.06.14.09.22.06.14.11.29.16.44.08.26.16.52.22.78.05.22.19.58.16.8-.03-.24-.03-.26-.01-.08,0,.06.01.12.02.17.01.13.02.27.03.41.02.27.02.54.01.81s-.03.54-.06.81c-.02.18-.02.15.01-.08-.01.08-.02.15-.04.23-.03.15-.06.3-.09.46-.18.82.25,1.78,1.12,1.98.81.18,1.78-.24,1.98-1.12.6-2.75.2-5.63-1.16-8.1-.41-.74-1.48-1.04-2.2-.58s-1.01,1.41-.58,2.2h0Z" fill="#fff" stroke-width="0"/><path d="m455.45,152.06c2.07,0,2.07-3.21,0-3.21s-2.07,3.21,0,3.21h0Z" fill="#fff" stroke-width="0"/><path d="m461.78,159.46c6.09,7.06,9.59,16.14,9.87,25.45.06,2.06,3.28,2.07,3.21,0-.31-10.2-4.16-19.99-10.81-27.72-1.35-1.57-3.62.71-2.27,2.27h0Z" fill="#fff" stroke-width="0"/><path d="m404.6,98.31c2.07,0,2.07-3.21,0-3.21s-2.07,3.21,0,3.21h0Z" fill="#fff" stroke-width="0"/><path d="m410.47,99.7c10.38,3.72,18.29,13,20.53,23.76.42,2.02,3.52,1.17,3.1-.85-2.47-11.9-11.36-21.92-22.77-26-1.95-.7-2.79,2.41-.85,3.1h0Z" fill="#fff" stroke-width="0"/><path d="m415.57,158.02c3.64,16.31,4.74,33.08,3.33,49.73-.18,2.06,3.04,2.05,3.21,0,1.44-16.93.26-34-3.44-50.59-.45-2.02-3.55-1.16-3.1.85h0Z" fill="#fff" stroke-width="0"/><path d="m364.92,131.88c2.59,3.53,4.45,7.49,5.46,11.75.2.84,1.16,1.35,1.98,1.12.86-.24,1.32-1.13,1.12-1.98-1.07-4.5-3.05-8.79-5.79-12.52-.51-.7-1.39-1.05-2.2-.58-.69.4-1.09,1.49-.58,2.2h0Z" fill="#fff" stroke-width="0"/><path d="m337.76,220.56c2.07,0,2.07-3.21,0-3.21s-2.07,3.21,0,3.21h0Z" fill="#fff" stroke-width="0"/><path d="m510.08,151.4c-6.5,3.75-11.4,9.94-13.6,17.11-.61,1.98,2.49,2.83,3.1.85,1.95-6.39,6.34-11.86,12.12-15.19,1.79-1.03.17-3.81-1.62-2.77h0Z" fill="#fff" stroke-width="0"/><path d="m516.47,153.52c2.07,0,2.07-3.21,0-3.21s-2.07,3.21,0,3.21h0Z" fill="#fff" stroke-width="0"/><path d="m524.77,221.39c2.07,0,2.07-3.21,0-3.21s-2.07,3.21,0,3.21h0Z" fill="#fff" stroke-width="0"/><path d="m587.25,153.52c2.07,0,2.07-3.21,0-3.21s-2.07,3.21,0,3.21h0Z" fill="#fff" stroke-width="0"/><path d="m581.94,153.24c-3.74,2.97-6.41,7.28-7.42,11.95-.18.85.25,1.74,1.12,1.98.8.22,1.79-.27,1.98-1.12.92-4.22,3.17-7.81,6.6-10.53.68-.54.56-1.71,0-2.27-.67-.67-1.59-.54-2.27,0h0Z" fill="#fff" stroke-width="0"/><path d="m662.44,96.69c-10.18,6.04-17.89,15.73-21.53,26.98-.64,1.97,2.46,2.82,3.1.85,3.38-10.46,10.6-19.45,20.05-25.06,1.78-1.05.16-3.83-1.62-2.77h0Z" fill="#fff" stroke-width="0"/><path d="m669.44,98.51c2.07,0,2.07-3.21,0-3.21s-2.07,3.21,0,3.21h0Z" fill="#fff" stroke-width="0"/><path d="m700.49,169.09c5.91,13.2,8.3,27.77,7.1,42.17-.17,2.06,3.04,2.05,3.21,0,1.26-15-1.39-30.07-7.53-43.79-.84-1.88-3.61-.25-2.77,1.62h0Z" fill="#fff" stroke-width="0"/><path d="m709.5,219.31c2.07,0,2.07-3.21,0-3.21s-2.07,3.21,0,3.21h0Z" fill="#fff" stroke-width="0"/></svg>